<svg width="478" height="121" viewBox="0 0 478 121" fill="none" xmlns="http://www.w3.org/2000/svg">
<path d="M64.3253 47.8647L63.8292 47.9295C56.1507 69.7411 46.8762 94.4426 38.1983 115.679L30.9153 116.599C23.0355 97.1529 14.1635 74.5433 6.77979 55.1329L6.18305 55.212V119.727L0 120.51V47.2177L10.3674 45.9093C18.8439 66.2759 27.9172 88.7633 35.2003 107.692L35.6963 107.627C41.3833 93.4506 52.4481 63.1343 60.4286 39.5902L71.7953 38.1523V111.445L64.3181 112.387V47.8719L64.3253 47.8647Z" fill="#B9B9B9"/>
<path d="M88.5543 44.5074C85.664 44.874 83.4712 42.9545 83.4712 40.1652C83.4712 37.3758 85.664 35.0034 88.5543 34.6368C91.4445 34.2702 93.5438 36.3047 93.5438 38.9934C93.5438 41.6821 91.5523 44.1335 88.5543 44.5074ZM84.9666 57.9222L92.1491 57.0163V108.864L84.9666 109.77V57.9222Z" fill="#B9B9B9"/>
<path d="M136.523 92.9975C134.532 97.239 128.643 103.86 119.671 105.492C106.507 107.85 100.726 102.602 100.92 93.2994C101.122 82.8034 109.498 75.564 124.258 72.7028C128.643 71.8473 133.036 71.5957 135.927 71.8257V67.9364C135.927 58.1665 131.44 55.2406 123.56 56.2327C117.478 57.0019 109.9 61.3441 104.616 65.5065V59.7265C110.101 55.9451 117.881 52.4656 124.064 51.5885C136.027 49.8775 143.109 55.1687 143.109 67.0306V90.4669C143.109 93.9536 143.605 99.0794 144.209 102.394L137.127 103.285C136.631 100.46 136.53 96.2829 136.53 92.9903L136.523 92.9975ZM124.754 77.2319C116.773 78.835 108.203 82.7099 108.103 91.8975C108.002 99.4892 113.488 101.488 120.469 100.51C125.056 99.7336 128.147 98.3461 131.34 94.651C135.028 90.2944 136.027 86.0816 136.027 81.5956V76.3117C133.432 76.1391 128.55 76.3548 124.761 77.2319H124.754Z" fill="#B9B9B9"/>
<path d="M172.514 100.424C158.257 102.221 148.882 92.4369 148.882 76.7791C148.882 62.02 158.056 47.2034 172.917 45.2264C187.871 43.4363 196.154 55.8518 196.254 70.8985C196.254 86.053 187.677 98.5045 172.522 100.417L172.514 100.424ZM172.119 49.6189C162.542 50.8267 156.762 63.6232 156.762 75.7871C156.762 86.9517 163.146 97.3183 173.118 96.0602C183.09 94.8021 188.475 83.0552 188.375 71.8978C188.375 59.9352 181.99 48.3752 172.119 49.6189Z" fill="#B9B9B9"/>
<path d="M226.257 91.9479V18.7561L234.036 17.7712V85.6791L263.952 81.9048V87.1888L226.257 91.9479Z" fill="#B9B9B9"/>
<path d="M275.52 20.9131C272.629 21.2798 270.437 19.3603 270.437 16.5709C270.437 13.7816 272.629 11.4092 275.52 11.0426C278.41 10.6759 280.509 12.7104 280.509 15.3991C280.509 18.0879 278.518 20.5393 275.52 20.9131ZM271.932 34.3279L279.115 33.4221V85.2696L271.932 86.1754V34.3207V34.3279Z" fill="#B9B9B9"/>
<path d="M287.979 55.0393L314.006 51.7539V57.5339L287.979 60.8193V55.0393Z" fill="#B9B9B9"/>
<path d="M367.058 37.8791L329.959 42.5592V78.8568L322.18 79.8417V6.64988L329.959 5.66498V37.3759L367.058 32.6958V0.984897L374.837 0V73.1918L367.058 74.1767V37.8791Z" fill="#B9B9B9"/>
<path d="M418.514 57.4118C416.522 61.6533 410.634 68.2744 401.661 69.9064C388.497 72.2644 382.717 67.0164 382.911 57.7137C383.112 47.2177 391.488 39.9783 406.248 37.1171C410.634 36.2616 415.027 36.01 417.917 36.24V32.3507C417.917 22.5808 413.431 19.6549 405.551 20.647C399.468 21.4162 391.891 25.7584 386.606 29.9208V24.1408C392.092 20.3594 399.871 16.8799 406.054 16.0028C418.018 14.2918 425.099 19.583 425.099 31.4449V54.8812C425.099 58.3679 425.595 63.4937 426.199 66.8079L419.118 67.6993C418.621 64.874 418.521 60.6972 418.521 57.4046L418.514 57.4118ZM406.744 41.6462C398.764 43.2493 390.194 47.1242 390.093 56.3119C389.992 63.9035 395.478 65.9021 402.459 64.9244C407.046 64.1479 410.138 62.7605 413.33 59.0653C417.018 54.7087 418.018 50.4959 418.018 46.0099V40.726C415.422 40.5534 410.54 40.7691 406.751 41.6462H406.744Z" fill="#B9B9B9"/>
<path d="M434.561 13.81L441.046 12.9905V24.3564C442.944 20.0286 447.926 10.424 459.494 9.06526C470.264 7.70653 477.044 13.0336 477.044 24.8021V60.3017L469.962 61.1931V26.7935C469.962 17.3183 465.375 13.314 457 14.4714C446.531 15.7942 441.743 27.3686 441.743 34.9459V64.7589L434.561 65.6647V13.8172V13.81Z" fill="#B9B9B9"/>
</svg>
