<svg width="432" height="184" viewBox="0 0 432 184" fill="none" xmlns="http://www.w3.org/2000/svg">
<path d="M0 64.6512L36.4923 60.0433V162.403L26.9517 163.608V152.102L9.68853 154.279V169.723L0 170.949V64.6512ZM9.68853 69.3365V148.227L26.9517 146.05V67.1594L9.68853 69.3365ZM126.74 57.2884V63.1927L105.087 65.9264V88.7896L95.2436 90.0297V67.1665L72.5266 70.0341V93.0523L62.5351 94.3135V71.2952L42.094 73.874V67.9697L62.5351 65.391V42.5277L72.5266 41.2666V64.1298L95.2436 61.2622V38.399L105.087 37.1589V60.0222L126.74 57.2884ZM45.8778 103.677L119.468 94.391V173.584L109.174 174.881V163.981L56.1724 170.667V182.173L45.8778 183.469V103.677ZM56.1724 131.754L77.8253 129.02V105.551L56.1724 108.285V131.754ZM56.1724 164.763L77.8253 162.029V135.08L56.1724 137.813V164.763ZM87.8169 127.759L109.167 125.068V101.599L87.8169 104.29V127.759ZM87.8169 160.768L109.167 158.077V131.127L87.8169 133.819V160.768Z" fill="url(#paint0_linear_6_30)"/>
<path d="M277.564 139.554V146.522L146.124 163.107V156.139L224.866 146.205C230.467 126.724 237.436 94.8067 240.614 67.4483L253.487 68.7025C248.794 93.3694 238.19 126.505 230.622 145.479L277.564 139.554ZM271.659 54.4491L152.184 69.5268V63.0166L210.026 55.7173C206.39 46.6354 200.035 33.3543 195.638 25.435L199.577 22.2151C207.602 29.2255 216.537 40.9707 221.688 50.3132L214.416 55.1677L271.652 47.9459V54.4561L271.659 54.4491ZM169.595 78.9891L174.443 76.5584C184.131 93.8062 193.369 120.805 197.16 139.561L184.589 144.021C182.018 123.144 175.81 98.1886 169.595 78.9891Z" fill="url(#paint1_linear_6_30)"/>
<path d="M355.847 113.929L330.714 117.099V147.987L320.567 149.27V118.381L295.581 121.538V115.634L320.567 112.477V97.181L302.395 99.4709V49.6579L320.87 47.3258V32.9385L296.342 36.0316V30.1273L320.87 27.0343V8.26458L331.017 6.98226V25.759L356.453 22.5462V28.4504L331.017 31.6633V46.0505L348.731 43.8171V93.63L330.714 95.9058V111.202L355.847 108.031V113.936V113.929ZM311.78 69.9777L339.338 66.4971V50.905L311.78 54.3856V69.9777ZM339.338 89.0644V72.4084L311.78 75.889V92.545L339.338 89.0644ZM431.862 34.9959L426.105 46.0153C408.997 38.7864 396.877 24.7233 390.219 12.0833C382.193 29.4509 369.623 46.3253 352.212 58.5214L349.788 54.8929C364.782 42.2529 377.345 21.588 384.011 0L394.158 2.35326L392.34 7.12318C401.88 20.4536 415.663 30.8319 431.862 34.9959ZM356.601 55.5481L386.583 51.7646V127.928C386.583 137.468 380.072 146.311 354.332 138.511L355.544 133.819C375.985 134.875 377.5 133.318 377.5 125.293V96.9767C372.202 103.55 366.748 108.933 361.449 113.386L356.601 105.368C362.809 101.711 369.32 97.1035 377.5 90.3185V58.8243L356.601 61.4594V55.5552V55.5481ZM364.627 90.1212C362.203 82.5542 358.419 73.6414 355.544 67.6455L359.025 65.088C363.873 70.0763 369.32 78.1718 372.653 85.0202L364.627 90.1212ZM390.825 51.2362L419.749 47.5865V124.201C419.749 133.586 413.993 141.435 389.768 134.798L390.825 130.12C408.842 130.57 410.512 129.147 410.512 121.425V91.5938C404.607 99.3018 398.702 105.199 393.101 109.687L388.408 101.648C395.377 97.5897 402.338 92.3195 410.519 85.0765V54.6392L390.832 57.1263V51.2221L390.825 51.2362ZM405.516 81.9342L397.335 86.1475C395.37 78.0661 392.791 70.0622 390.219 63.8761L393.7 61.6215C398.392 67.2369 402.937 74.9942 405.509 81.9342H405.516Z" fill="url(#paint2_linear_6_30)"/>
<defs>
<linearGradient id="paint0_linear_6_30" x1="63.37" y1="37.1589" x2="63.37" y2="183.469" gradientUnits="userSpaceOnUse">
<stop stop-color="#117E8D"/>
<stop offset="1" stop-color="#A29309"/>
</linearGradient>
<linearGradient id="paint1_linear_6_30" x1="211.844" y1="22.2151" x2="211.844" y2="163.107" gradientUnits="userSpaceOnUse">
<stop stop-color="#117E8D"/>
<stop offset="1" stop-color="#A29309"/>
</linearGradient>
<linearGradient id="paint2_linear_6_30" x1="363.722" y1="0" x2="363.722" y2="149.27" gradientUnits="userSpaceOnUse">
<stop stop-color="#117E8D"/>
<stop offset="1" stop-color="#A29309"/>
</linearGradient>
</defs>
</svg>
