<svg width="621" height="207" viewBox="0 0 621 207" fill="none" xmlns="http://www.w3.org/2000/svg">
<rect x="0.434753" y="121.942" width="550.937" height="12" transform="rotate(-6.58167 0.434753 121.942)" fill="#EAE088"/>
<rect x="225.36" y="194.413" width="396.349" height="12" transform="rotate(-6.58167 225.36 194.413)" fill="#B4C081"/>
<path d="M88.5479 72.3526L82.5393 77.2247C80.7741 74.1513 78.3876 70.3556 75.6481 66.4253C61.1597 71.1487 36.504 77.3309 17.8569 80.6734L16 73.6272C19.6221 73.2873 23.5125 72.8341 27.4876 72.2747C34.2941 63.1394 41.7148 49.5924 46.396 38.9417L53.2871 41.406C47.4551 51.4902 39.3283 63.2598 31.724 71.6869C46.8337 69.4633 62.9178 66.3261 73.8759 63.798C70.6068 59.2162 67.0695 54.5849 63.6239 50.4705L65.8338 48.346C73.7841 54.6769 84.2126 65.9437 88.5408 72.3455L88.5479 72.3526ZM26.0755 87.5992L78.0346 81.4807V117.908L71.7648 118.645V111.818L32.3524 116.457V123.191L26.0755 123.928V87.5921V87.5992ZM32.3524 112.916L71.7648 108.277V85.7651L32.3524 90.4035V112.916Z" fill="#3D3D3D"/>
<path d="M102.062 54.1884C106.835 56.2845 112.137 59.3792 116.113 62.8138L111.961 67.9125C108.424 63.7202 104.448 59.9315 100.65 56.4828L102.062 54.1884ZM113.458 75.1782L116.021 75.5889C114.079 87.7834 111.071 102.761 108.508 111.039L102.055 109.226C105.677 100.644 110.273 86.013 113.451 75.1782H113.458ZM103.121 34.4733L104.448 32.193C108.868 33.8855 114.7 36.7464 118.937 39.9686L114.87 45.0531C111.424 41.3849 106.828 37.405 103.114 34.4733H103.121ZM121.239 75.1499L117.087 73.599C119.297 70.0582 121.062 65.9509 121.945 61.9498L124.063 62.141C123.794 66.5174 122.735 71.2479 121.239 75.1499ZM121.154 45.5559C123.011 40.9033 124.868 34.4803 126.012 29.7428L130.608 30.7058C128.666 35.7196 126.103 41.2503 123.978 45.0461C125.835 44.6495 127.692 44.2529 129.457 43.7785C130.608 41.4274 131.667 38.9984 132.458 36.7748L136.701 38.3115C133.256 45.0106 128.659 51.5753 125.39 55.6826C128.038 54.8399 130.693 53.9972 133.164 52.9916L131.575 49.812L133.256 48.5514C135.466 50.683 137.676 53.6148 138.996 56.2066L135.459 58.3948C135.014 57.2972 134.576 56.1925 134.047 55.0169C129.45 57.6867 123.794 60.2998 119.466 61.6949L118.139 57.4176C119.466 57.1697 120.787 56.8369 122.114 56.5041C123.971 53.806 126.004 50.4635 127.854 46.9652C124.585 48.4169 121.401 49.5004 119.106 50.1236L118.224 45.8817L121.14 45.5418L121.154 45.5559ZM130.34 91.7137L176.551 86.268C175.845 91.2251 174.518 96.253 173.374 99.9354C170.811 108.568 163.214 109.729 148.81 104.687L149.693 102.102C164.096 103.866 166.391 103.505 168.072 98.5191C168.693 96.7629 169.484 93.5691 170.013 90.3115L129.012 95.1412L126.718 101.083L121.154 100.495C123.625 95.1553 126.809 86.183 128.221 81.0488L133.347 83.0175L167.104 79.0447V73.5494L123.717 78.6623V75.4756L172.583 69.7183V81.5091L132.288 86.2538C131.667 88.1021 131.053 89.9433 130.347 91.7137H130.34ZM126.365 61.5178L128.398 60.838C129.902 64.2088 130.961 68.4224 131.582 71.5383L127.254 72.7563C127.169 69.3076 126.901 65.179 126.372 61.5178H126.365ZM133.432 58.5577C135.466 61.1567 137.499 64.7258 138.911 68.0187L134.76 70.0157C133.962 66.4749 132.818 62.8917 131.582 59.6695L133.439 58.5648L133.432 58.5577ZM159.938 36.7323L136.963 39.4374V36.3357L148.98 34.9194C146.508 32.9082 143.854 31.1803 141.382 29.6082L142.357 27.4554C145.626 28.1352 149.34 29.6436 152.785 31.4565L150.752 34.7069L159.945 33.6235V36.7252L159.938 36.7323ZM157.114 43.7147L139.794 45.7542V42.7375L157.114 40.698V43.7147ZM157.022 50.5484L139.879 52.5667V49.5499L157.022 47.5317V50.5484ZM140.232 69.4563V56.5182L157.022 54.5425V67.4805L140.232 69.4563ZM144.383 66.1279L152.863 65.1294V57.7717L144.383 58.7702V66.1279ZM161.35 40.2023C163.115 35.6488 164.795 29.3391 165.77 24.7927L170.366 25.5788C168.862 29.9198 166.038 36.1941 164.096 39.7915C165.862 39.4941 167.719 39.0975 169.399 38.7222C170.635 36.0949 171.694 33.581 172.576 31.2582L176.996 32.6887C173.635 39.3808 168.778 46.5969 165.509 50.8813C168.509 50.0811 171.341 49.3092 173.988 48.3744C173.282 46.866 172.485 45.4497 171.87 44.3733L173.459 43.1199C175.93 45.4001 179.114 49.8969 180.35 52.5879L176.728 54.7903C176.375 53.5935 175.669 51.901 174.871 50.2227C170.275 52.8004 164.181 55.2931 159.761 56.7023L158.349 52.2622C159.677 52.1064 160.912 51.8727 162.24 51.6248C164.096 48.9268 166.038 45.4143 167.895 41.739C164.803 43.0774 161.71 43.9767 159.5 44.5008L158.526 40.5351C159.408 40.4289 160.383 40.4076 161.35 40.2023ZM158.526 68.5428C160.291 65.3206 161.703 61.2558 162.501 57.3538L164.711 57.4459C164.442 61.9994 163.828 66.1492 162.416 69.7679L158.526 68.5428ZM167.895 67.8842C167.81 64.4354 167.45 60.2219 166.921 56.8298L168.954 56.0579C170.366 59.4358 171.517 63.6423 172.047 66.5033L167.895 67.8771V67.8842ZM173.282 53.9547C175.492 56.2633 177.879 59.797 179.467 63.0616L175.669 65.4552C174.61 62.2118 172.929 58.0691 171.517 55.1302L173.282 53.9476V53.9547Z" fill="#3D3D3D"/>
<path d="M207.216 37.6385L223.3 35.7477V97.8745L217.468 98.5614V90.2334L199.35 92.365V102.378L193.518 103.065V39.2531L204.031 38.0138C205.359 32.4548 206.503 25.2245 207.209 19.8283L214.192 20.5152C212.426 26.2159 209.595 32.6672 207.209 37.6456L207.216 37.6385ZM217.468 39.8904L199.35 42.022V62.3178L217.468 60.1863V39.8904ZM217.468 86.7776V63.7341L199.35 65.8657V88.9092L217.468 86.7776ZM265.452 30.8756C265.452 57.3749 264.569 75.4683 263.333 86.1615C262.183 95.6933 255.207 100.594 235.762 94.3691L236.468 91.6285C254.585 92.8607 256.435 91.2249 257.233 84.3061C258.116 76.4881 259.09 60.427 259.267 35.1458L237.703 37.6881C235.14 44.9892 231.61 52.5877 226.745 59.7189L224.535 58.3875C230.989 45.3999 234.434 29.8346 236.108 16.6062L242.914 17.1373C242.032 22.2007 240.796 28.0217 238.939 33.9986L265.445 30.8756H265.452ZM244.51 73.3155C241.417 65.9719 237.35 58.2034 233.375 51.7592L235.585 49.8117C240.972 54.9388 247.158 62.8914 250.518 69.2365L244.51 73.3155Z" fill="#3D3D3D"/>
<path d="M304.857 65.2214L287.806 67.2325V77.8691L281.889 78.5702V16.9675L310.604 13.5825V72.4304L304.864 73.1103V65.2214H304.857ZM287.806 39.4869L304.857 37.4757V17.711L287.806 19.7222V39.4869ZM304.857 61.7656V40.9386L287.806 42.9498V63.7767L304.857 61.7656ZM352.128 6.9187V77.1114C352.128 86.0625 342.582 88.5127 327.387 83.1307L328.093 80.3901C343.733 81.7356 346.119 80.3901 346.119 75.256V53.5438L323.85 56.164C322.17 72.1401 316.867 82.5146 303.967 92.188L302.287 90.1698C316.161 76.8352 318.456 67.1688 318.456 40.6695V10.8844L352.121 6.9187H352.128ZM346.119 50.081V31.6476L324.471 34.197V42.1708C324.471 45.8957 324.387 49.4507 324.118 52.6728L346.119 50.081ZM324.471 13.7241V30.7411L346.119 28.1918V11.1747L324.471 13.7241Z" fill="#3D3D3D"/>
<path d="M446.147 66.659L441.727 74.8028C430.684 71.2266 412.214 59.8465 406.826 35.0397C402.145 60.0518 387.297 74.8311 366.708 83.8105L365.472 81.2116C383.59 71.2761 396.137 58.0123 400.196 35.5566L369.094 39.2178V35.1388L400.902 31.3927C401.171 28.9708 401.432 26.4568 401.524 23.872C401.792 19.0565 401.877 13.2851 401.877 8.05176L373.867 11.3518V7.44983L437.222 0V3.90195L408.592 7.27279C408.676 13.6462 408.415 19.878 407.97 25.954C407.885 27.5615 407.702 29.0841 407.441 30.6279L442.08 26.5489V30.6279L409.742 34.4377C415.483 52.0213 429.802 62.4737 446.147 66.666V66.659Z" fill="#3D3D3D"/>
<path d="M486.971 44.0404C493.863 39.7702 497.576 33.2197 497.661 26.9171C496.779 28.0855 494.922 28.5671 493.771 28.6167C490.233 28.9424 487.847 26.8321 487.762 23.1214C487.762 19.3115 490.41 16.5142 493.947 15.9194C498.452 15.2112 501.813 17.3853 502.074 22.9372C502.695 31.9025 498.007 41.406 488.553 45.8887L486.964 44.0404H486.971Z" fill="#3D3D3D"/>
<path d="M248.132 124.218L269.427 121.711V181.621L263.863 182.28V175.545L253.787 176.735V185.778L248.132 186.444V124.225V124.218ZM253.787 127.008V173.187L263.863 171.998V125.819L253.787 127.008ZM322.092 120.557V124.013L309.453 125.5V138.884L303.713 139.564V126.18L290.46 127.738V141.207L284.628 141.894V128.425L272.703 129.827V126.371L284.628 124.969V111.585L290.46 110.898V124.282L303.713 122.724V109.34L309.453 108.66V122.044L322.092 120.557ZM274.906 147.297L317.848 142.241V188.59L311.84 189.298V182.917L280.914 186.557V193.292L274.906 194V147.29V147.297ZM280.914 163.783L293.553 162.296V148.558L280.914 150.045V163.783ZM280.914 183.102L293.553 181.614V165.837L280.914 167.324V183.102ZM299.385 161.609L311.847 160.143V146.405L299.385 147.871V161.609ZM299.385 180.927L311.847 179.462V163.684L299.385 165.15V180.927Z" fill="#3D3D3D"/>
<path d="M401.792 177.018C397.641 177.776 392.691 178.265 388.539 178.491C380.236 178.937 378.026 177.252 378.026 170.51V142.772L366.185 144.167C364.682 164.286 355.672 179.617 334.377 188.066L333.403 185.523C352.933 175.425 358.673 161.276 360 144.903L333.495 148.026V144.216L369.455 139.982V121.548L352.403 123.559C349.402 129.494 345.597 134.904 341.269 139.585L339.327 137.956C345.597 128.708 349.932 119.07 352.495 105.296L358.857 105.785C357.797 110.515 356.209 115.224 354.26 119.622L369.462 117.83V100.813L375.738 100.077V117.094L401.008 114.12V117.845L375.738 120.819V139.252L410.816 135.124V138.934L384.042 142.085V167.961C384.042 172.125 385.016 172.989 389.253 172.84C392.875 172.769 397.732 172.196 401.354 171.417C407.186 170.022 407.095 168.35 406.833 152.601L409.481 152.289C413.633 171.828 412.75 174.95 401.792 177.04V177.018Z" fill="#3D3D3D"/>
<path d="M479.282 105.494V113.999L495.896 112.045V160.61C495.896 168.23 489.09 169.923 480.963 166.446L481.669 163.79C489.005 164.434 490.24 163.67 490.24 159.945V145.852L479.198 147.155V168.251L473.457 168.931V147.835L462.591 149.117V171.629L456.936 172.295V116.634L473.457 114.686V106.181L454.81 108.377L450.129 112.831C447.39 108.724 442.97 103.483 439.877 100.035C436.876 106.415 432.894 112.732 428.389 118.404L451.188 115.72V119.176L440.936 120.38V130.485L453.483 129.005V132.553L440.936 134.033V161.333C446.147 159.654 450.92 157.856 454.365 156.383L455.248 158.939C448.357 163.471 432.096 170.44 422.91 173.294L420.969 167.317C424.944 166.318 430.07 164.824 435.196 163.245V134.706L421.851 136.278V132.73L435.196 131.158V121.053L425.918 122.143V121.343C424.414 123.028 422.918 124.622 421.414 126.13L419.648 124.388C426.716 115.579 433.346 103.278 436.262 92.2094L442.532 93.7744C442.087 94.8933 441.649 96.0972 441.12 97.2232C445.01 99.5105 450.574 103.554 453.843 107.244V104.942L473.457 102.633V88.8103L479.289 88.1233V101.947L499.61 99.553V103.101L479.289 105.494H479.282ZM432.012 157.502L426.533 159.562C425.826 154.152 424.591 146.943 423.44 141.49L425.65 140.52C428.121 145.279 430.684 152.155 432.012 157.495V157.502ZM443.323 155.547C444.911 150.045 446.5 142.057 447.213 137.1L452.692 138.141C451.188 143.544 448.449 151.135 445.624 156.078L443.33 155.547H443.323ZM473.45 129.041V118.142L462.584 119.424V130.322L473.45 129.041ZM473.45 132.497L462.584 133.778V145.654L473.45 144.372V132.497ZM490.24 130.521L479.198 131.824V143.7L490.24 142.397V130.521ZM479.282 117.455V128.354L490.24 127.065V116.166L479.282 117.455ZM490.77 100.502C488.913 96.9966 485.291 91.6641 483.081 88.7324L484.761 86.7637C488.031 88.7678 492.45 92.6839 495.543 96.4867L490.77 100.502Z" fill="#3D3D3D"/>
<path d="M543.435 143.494L544.494 145.937C536.629 151.121 520.545 159.215 510.3 163.082L508.358 156.666C510.123 156.191 512.072 155.611 514.014 155.023V123.651L519.316 123.028V153.337C521.434 152.643 523.644 151.85 525.769 151.071V113.319L514.55 114.644V87.8753L541.232 84.7311V111.499L531.425 112.654V124.799L543.527 123.375V126.923L531.425 128.347V148.819C535.753 147.07 539.905 145.25 543.442 143.508L543.435 143.494ZM520.022 110.536L535.93 108.66V88.8101L520.022 90.6867V110.536ZM590.007 120.019L586.914 127.121C577.905 124.905 570.654 121.237 564.914 116.683C558.022 123.878 549.274 129.784 538.493 134.33L537.518 131.965C547.417 126.987 555.459 120.904 561.553 113.893C557.133 109.63 553.864 104.871 551.477 99.8361C549.183 103.738 546.704 107.314 543.88 110.395L541.938 108.766C547.594 100.658 551.392 89.5749 553.779 78.478L560.056 79.774C559.173 82.7128 558.114 85.765 556.872 88.7463L573.662 86.7706L575.25 85.2551L581.527 87.6204C578.788 96.9822 574.46 105.381 568.536 112.64C574.721 116.343 581.965 118.503 590.007 120.04V120.019ZM548.123 131.158L581.612 127.213V157.438L575.956 158.103V152.431L553.779 155.044V160.894L548.123 161.559V131.158ZM564.561 110.076C568.98 104.057 572.158 97.3929 574.015 90.1768L555.283 92.3863C554.662 93.8805 553.955 95.2897 553.165 96.7981C556.173 102.385 560.056 106.712 564.561 110.076ZM553.779 151.496L575.956 148.883V131.335L553.779 133.948V151.496Z" fill="#3D3D3D"/>
</svg>
