<svg width="200" height="255" viewBox="0 0 200 255" fill="none" xmlns="http://www.w3.org/2000/svg">
<circle cx="100" cy="155" r="100" fill="#6F7B20"/>
<ellipse cx="100" cy="137.5" rx="91" ry="91.5" fill="white"/>
<path d="M42.8696 151.204H52.6685V178.691H50.1083V175.601H45.472V179.75H42.8696V151.204ZM45.472 152.79V173.976H50.1083V152.79H45.472ZM76.9024 153.521V155.106H71.0868V161.247H68.4454V155.106H62.3471V161.286H59.6634V155.106H54.1727V153.521H59.6634V147.38H62.3471V153.521H68.4454V147.38H71.0868V153.521H76.9024ZM55.1896 163.238H74.9498V184.503H72.1849V181.576H57.9545V184.665H55.1896V163.235V163.238ZM57.9545 171.127H63.7701V164.824H57.9545V171.127ZM57.9545 179.99H63.7701V172.751H57.9545V179.99ZM66.4538 171.127H72.1881V164.824H66.4538V171.127ZM66.4538 179.99H72.1881V172.751H66.4538V179.99Z" fill="black"/>
<path d="M117.93 180.724V182.596H81.9026V180.724H98.4105V168.81H85.8858V167.101H98.4105V157.14H83.3256V155.392H100.402C98.8166 153.033 96.2954 149.739 94.5053 147.708L95.3987 146.691C97.8387 148.4 100.727 150.922 103.206 153.361L101.052 155.395H116.299V157.143H101.335V167.105H113.859V168.814H101.335V180.727H117.924L117.93 180.724Z" fill="black"/>
<path d="M123.174 148.602H135.413V159.297H127.199C126.956 161.412 126.631 163.729 126.306 165.886H135.413C135.169 170.724 134.6 176.783 134.029 180.402C133.216 185.402 129.555 185.809 122.888 182.761L123.213 181.582C129.678 183.047 131.02 183.005 131.589 179.428C132.037 176.786 132.563 170.971 132.726 167.475H126.059C125.854 168.612 125.692 169.629 125.49 170.564L122.969 170.24C123.824 166.052 124.431 161.659 124.922 156.984L127.118 157.676H132.81V150.194H123.174V148.608V148.602ZM158.997 181.66L157.288 184.587C150.699 180.929 146.553 174.707 145.416 166.981H142.365V180.441C144.601 179.954 146.758 179.424 148.425 178.937L148.873 180.116C145.579 181.702 140.254 183.573 136.147 184.223L135.455 181.5C136.797 181.377 138.22 181.176 139.724 180.932V166.984H136.391V165.399H139.929V148.891H156.274V150.476H142.531V154.216H154.565V155.801H142.531V159.703H154.565V161.25H142.531V165.399H158.064V166.984H146.68C147.291 169.791 148.265 172.147 149.607 174.181C151.193 172.715 153.064 170.642 154.568 168.488L156.722 170.197C154.812 172.189 152.577 173.937 150.381 175.24C152.496 177.923 155.342 179.996 159 181.663L158.997 181.66Z" fill="black"/>
<path d="M77.3149 114.654C77.5203 114.594 77.9249 114.358 77.786 114.292L77.0371 114.582L77.3089 114.654H77.3149Z" fill="#202020"/>
<path d="M78.2692 113.247C77.8646 113.295 77.1761 113.446 76.5601 113.857C77.3089 113.646 77.0432 113.821 77.9249 113.543C78.0638 113.609 77.7921 113.851 77.5203 113.966C77.7196 113.911 77.4478 114.219 77.9249 114.044C78.402 113.615 78.3417 113.434 77.7921 113.477C77.931 113.356 78.1363 113.301 78.2692 113.247Z" fill="#202020"/>
<path d="M75.7084 102.02L75.6299 102.111C75.6782 102.08 75.7023 102.05 75.7084 102.02Z" fill="#202020"/>
<path d="M75.2012 95.0267C75.2253 95.0811 75.3038 95.0932 75.3763 95.0932C75.322 95.0448 75.2676 95.0086 75.2012 95.0267Z" fill="#202020"/>
<path d="M76.0165 93.7944C76.0165 93.7944 75.9803 93.8427 75.9622 93.8669C76.0346 93.8367 76.0769 93.8065 76.0165 93.7944Z" fill="#202020"/>
<path d="M75.7085 102.02L75.9138 101.785C75.6541 101.827 75.7447 101.918 75.7085 102.02Z" fill="#202020"/>
<path d="M75.811 112.601C75.8654 112.625 75.9439 112.625 76.0466 112.613C76.0043 112.595 75.962 112.577 75.9318 112.553C75.8896 112.571 75.8594 112.583 75.8171 112.601H75.811Z" fill="#202020"/>
<path d="M77.0552 104.859L77.0733 104.913C77.1639 104.907 77.2726 104.889 77.3994 104.871L77.0612 104.859H77.0552Z" fill="#202020"/>
<path d="M77.8525 107.051C77.8646 106.99 77.2184 107.19 76.9285 107.262C77.2002 107.202 77.3391 107.196 77.4056 107.226C77.5264 107.184 77.6713 107.129 77.8525 107.051Z" fill="#202020"/>
<path d="M78.106 110.97L78.2207 110.994C78.1845 110.994 78.1482 110.976 78.106 110.97Z" fill="#202020"/>
<path d="M76.7773 103.198C76.874 103.167 76.9585 103.143 77.0068 103.119C76.9223 103.137 76.8498 103.167 76.7773 103.198Z" fill="#202020"/>
<path d="M70.1765 35.9621C70.2248 35.9621 70.255 35.9621 70.2973 35.9621C70.2309 35.95 70.1826 35.944 70.1765 35.9621Z" fill="#202020"/>
<path d="M73.5464 33.1535L73.5826 33.1897C73.7094 33.1897 73.8363 33.1897 73.9631 33.1958L73.5464 33.1475V33.1535Z" fill="#202020"/>
<path d="M76.8317 91.6387C76.8317 91.6387 76.8256 91.6387 76.8196 91.6508C76.8981 91.7051 76.886 91.6749 76.8317 91.6387Z" fill="#202020"/>
<path d="M78.3838 71.2379C77.7678 71.4614 77.6168 70.8212 76.9343 71.1655C77.2001 71.1353 77.9791 71.5278 78.3838 71.2379Z" fill="#202020"/>
<path d="M75.8655 112.504C75.8655 112.504 75.8232 112.444 75.8171 112.414C75.8171 112.468 75.8292 112.492 75.8655 112.504Z" fill="#202020"/>
<path d="M76.9282 71.1655L76.8618 71.2018C76.892 71.1897 76.9101 71.1776 76.9343 71.1655H76.9282Z" fill="#202020"/>
<path d="M76.6203 86.7163C76.4995 86.7163 76.4089 86.7284 76.3184 86.7405C76.3908 86.7405 76.4754 86.7405 76.6203 86.7163Z" fill="#202020"/>
<path d="M75.4607 90.3704L75.5513 90.2798C75.4909 90.316 75.4667 90.3462 75.4607 90.3704Z" fill="#202020"/>
<path d="M75.8534 84.7113C75.9077 84.669 76.0044 84.663 75.9259 84.5845C75.8896 84.5845 75.8655 84.5845 75.8413 84.5966C75.9319 84.6328 75.9681 84.669 75.8534 84.7113Z" fill="#202020"/>
<path d="M76.1069 82.7002C76.0526 82.7002 76.0163 82.7123 75.968 82.7183C75.9741 82.7425 75.9861 82.7666 75.9922 82.7848L76.1069 82.7002Z" fill="#202020"/>
<path d="M70.4784 42.2793C70.6717 42.237 70.8831 42.2068 71.0884 42.1887C70.6052 42.2189 70.4361 41.9109 70.4784 42.2793Z" fill="#202020"/>
<path d="M76.1615 112.444C75.9984 112.504 75.9139 112.522 75.8716 112.504C75.8897 112.522 75.9078 112.54 75.932 112.559C76.0286 112.522 76.1132 112.486 76.1615 112.444Z" fill="#202020"/>
<path d="M70.5388 84.0167L70.6777 83.6846C70.5992 83.7752 70.5509 83.8959 70.5388 84.0167Z" fill="#202020"/>
<path d="M72.1814 57.5467L72.0908 57.4863C72.0908 57.4863 72.1029 57.5407 72.1814 57.5467Z" fill="#202020"/>
<path d="M70.7078 82.64C70.9554 82.6098 71.1003 82.5676 71.203 82.5132C71.1547 82.4891 71.1124 82.4709 71.0339 82.4468L70.7078 82.64Z" fill="#202020"/>
<path d="M69.494 40.0024C69.4759 40.3165 70.3697 40.1534 70.877 40.2259C71.1306 40.6063 70.2187 40.395 69.7597 40.5218C69.9952 40.7573 70.8105 40.9446 70.7803 41.1197C70.6354 41.1318 70.5811 41.168 70.3938 41.1197C71.1004 41.3733 70.424 41.8565 71.3178 42.1524C71.2393 42.1705 71.1669 42.1826 71.0944 42.1887C71.5413 42.1464 71.9943 42.1403 72.3204 42.1524C72.3325 42.2913 72.882 42.4181 72.3023 42.4665C72.3204 42.3819 72.0848 42.3698 71.9037 42.3276L72.1573 42.4785C71.3179 42.6054 71.8674 42.2732 71.2454 42.2672C71.5171 42.5571 72.2117 42.9013 71.9701 43.1187C71.1487 43.1549 71.6983 42.5993 70.9676 42.8892L71.2816 42.551C69.9832 42.7986 71.3722 42.3457 69.9892 42.5691C69.7476 43.016 70.4059 43.0764 70.1643 43.5233C70.6173 43.632 70.8407 43.4992 71.2937 43.6019C72.109 44.2481 69.2282 44.079 70.3214 44.5621C70.8709 44.695 71.9037 44.7372 71.3541 45.0875L70.424 44.9547C70.3334 45.4438 71.7587 45.2264 71.1367 45.7277C70.7743 45.6431 70.8287 45.3533 70.7139 45.4318C69.9832 45.77 71.2393 45.6552 71.2454 45.9028L70.424 45.9753C70.575 46.4887 71.185 47.0201 71.3782 47.5455C71.1306 47.5335 70.8709 47.4549 70.6294 47.6059C71.0884 48.2763 70.6656 49.0976 70.273 49.8344L71.0098 49.9915C71.0098 50.0518 70.7079 50.1424 70.5629 50.1002C70.3334 50.3961 71.0098 50.0519 71.2997 50.1364C71.3722 50.2753 70.9253 50.384 70.7018 50.3236C71.3601 50.6981 72.1754 51.3865 71.5051 51.9724L71.2816 51.918C71.0582 52.3287 72.7854 52.075 72.1875 52.5159L72.0546 52.4736C71.8855 53.301 72.6767 54.0197 71.7285 54.7806C72.7552 54.7142 71.4084 55.596 72.8216 55.3967C72.1996 55.9462 71.9278 55.8677 71.5594 56.532C71.5172 56.6951 72.4774 56.6226 72.6525 56.7917L71.9157 56.9125L72.725 57.0514L71.8674 57.3232L72.0848 57.4742C72.115 57.3957 72.3929 57.2749 72.6042 57.2507C72.9847 57.4863 72.1875 58.0117 71.8131 58.066L72.5257 58.6398C72.2237 58.6579 72.115 58.5673 71.9097 58.5009C72.7069 58.7545 71.1367 58.6579 71.8674 58.8874C72.0305 58.827 72.3083 58.8572 72.4593 58.8511C72.0245 59.0625 72.0728 59.4188 72.2781 59.6604H71.7648C71.7164 59.8959 71.801 60.1315 71.8976 60.3912C71.9943 60.6629 72.103 60.9468 72.115 61.2367C72.3385 61.0132 73.2323 61.0011 73.3289 61.1702L72.5499 61.291C73.0391 61.3695 72.8337 61.0917 73.4437 61.279C73.3652 61.5024 72.562 61.4843 72.2962 61.3756L72.5861 61.6232C72.3506 61.6534 72.2238 61.599 71.9278 61.6051C72.423 61.6836 71.1669 62.1063 72.0245 62.209L71.7889 62.2392C71.8191 62.8129 72.0969 63.0606 72.1634 63.5256C72.8398 63.5014 72.7009 63.6886 73.2565 63.8034C73.0572 64.1597 72.5438 64.5643 72.6163 64.975C72.9666 65.2528 73.1961 65.0354 73.6007 65.1502C72.9847 65.1985 73.0572 65.6091 72.6042 65.4099C72.725 65.9051 72.7492 66.0379 73.2686 66.6539C73.5222 66.5815 73.6309 66.4969 73.8423 66.5332C73.945 66.6479 73.5886 66.7989 73.2927 66.7929L73.2263 66.7627C74.1744 67.4572 71.4507 68.4054 72.7371 68.9489L72.6707 68.9187L73.341 69.4985C73.2323 69.7642 72.876 69.3354 72.4955 69.5287C73.5162 70.1628 72.3325 70.501 73.0028 71.0264C71.1729 71.3586 73.0813 72.4275 71.8855 72.8926H72.3143C72.7311 73.0496 72.0607 73.0375 71.952 73.1281C72.2841 73.1341 72.3506 73.0073 72.574 73.1039C73.0149 74.2937 71.7527 75.417 71.2152 76.4618C71.04 76.8483 73.3773 77.0235 72.2841 77.3919L71.5171 77.1141C71.9278 77.6032 71.8312 78.026 71.7346 78.4367C71.6198 78.9077 71.487 79.3788 71.807 79.9103C71.6379 79.8257 71.4024 79.7774 71.4205 79.6868C70.8166 79.7834 71.2635 80.4055 71.7285 80.484C71.65 80.6169 71.2997 80.4478 71.0461 80.4961C70.6716 80.635 71.6983 81.1121 71.1125 81.1242C71.0159 81.1242 70.9374 81.0396 70.8951 80.9973C71.1548 81.1725 70.7381 81.5892 71.4145 81.565C71.0461 81.867 71.6077 82.2716 71.1789 82.4951C71.8916 82.7789 70.732 83.0447 71.7768 83.2379C70.6958 83.0688 70.8347 83.7452 71.3178 84.023C70.9978 83.9083 70.9555 84.174 70.5086 84.0351C70.4965 84.2888 70.6716 84.5485 71.2333 84.5605C69.8744 84.8927 72.1754 85.5933 70.4905 85.702C71.0219 86.5112 71.3481 87.2299 71.5715 87.9124C70.4784 87.8218 71.5111 87.1635 70.3697 87.1152C70.7622 87.7916 71.6983 88.2083 71.4024 88.8243C71.2454 88.9813 70.9374 88.7096 70.7502 88.6492C71.1729 89.3074 70.5871 89.8933 71.185 90.473C71.0823 90.473 70.9736 90.4066 70.8891 90.3462C70.9253 90.461 70.732 90.6059 71.2212 90.5999L71.0884 90.4912C71.807 90.3281 72.5861 90.9501 72.9666 90.9683C71.5473 90.769 72.6103 91.5178 70.8166 91.2159C70.9072 91.2883 71.1427 91.385 71.4749 91.3669C71.3782 91.4756 71.185 91.5118 70.8045 91.4031C71.0702 91.8077 71.6017 91.6628 71.5896 92.0191C71.3481 92.0191 71.2575 91.9466 70.9736 91.9104C71.4386 92.0916 71.9037 92.2667 71.7164 92.5747C71.5715 92.5566 71.3843 92.5989 71.3843 92.5083C71.4749 93.0397 72.6586 93.3659 72.2298 93.9517C71.185 93.8309 71.8916 94.1631 70.9917 94.2355L71.2695 94.5375L71.7044 94.3926C71.6923 94.6643 72.3808 94.8636 72.0969 95.1112L71.7104 94.9361L71.9218 95.4313L72.2419 95.1233C72.725 95.3649 73.3773 95.0206 73.1538 95.389C73.0572 95.3226 73.1598 95.6548 72.6405 95.836C72.9364 95.9447 73.2504 96.0534 73.0391 96.2708C72.7552 96.3493 72.0426 96.3131 71.8554 96.3674C72.6163 96.4338 72.109 96.9834 72.9364 97.068C72.7431 97.0317 72.2721 97.074 72.1754 97.1042L72.7975 97.1525C72.6163 97.2975 72.5257 97.3216 72.1452 97.3458C72.0788 97.7323 73.2685 97.1042 72.8277 97.5994C72.7733 97.5692 72.6827 97.5994 72.5861 97.533C72.3808 98.0101 73.0693 98.3423 72.8216 98.7892C71.9339 99.0308 72.5619 98.4631 71.8191 98.6986C72.0426 99.2844 73.0753 99.7676 72.9485 100.365L73.033 100.245C74.3073 100.112 72.4774 100.77 73.1176 100.957C73.0149 100.903 72.3989 100.987 72.5438 100.981C72.3989 101.41 72.9968 101.724 73.5162 102.226H73.178C72.9364 102.503 73.1357 102.854 73.0451 103.131C73.3833 103.131 73.3591 103.282 73.8061 103.095C72.9605 103.675 73.3048 103.989 73.6792 104.267C74.0537 104.545 74.4523 104.786 73.7879 105.324C73.7638 105.245 73.4618 105.209 73.4799 105.269L73.9208 105.759C74.4462 105.565 74.2288 105.596 74.6153 105.36C74.9535 105.342 75.2374 105.432 75.2736 105.565C74.8509 105.42 74.41 105.813 74.1443 106.006C74.3013 105.94 74.4945 105.928 74.6576 105.867C73.794 106.435 75.7507 105.602 75.2313 106.181L74.9414 106.242C75.1287 106.344 75.5454 106.369 75.5091 106.55C74.9112 106.803 75.1709 106.483 74.6636 106.628C74.7723 106.846 75.9681 106.701 75.4186 107.099C75.2193 107.057 75.1709 106.924 74.9716 106.882C74.3194 107.329 74.5066 107.299 74.4462 107.504L74.4583 107.48L74.253 107.969L74.416 107.806C76.095 107.558 74.8992 108.283 76.0768 108.289C74.9596 108.277 75.485 108.428 74.7844 108.645C74.6274 108.808 74.4704 109.032 74.259 109.062C74.8811 109.044 73.9329 109.521 74.8388 109.479C74.6214 109.569 74.8871 109.678 74.3194 109.847C74.5791 110.016 74.6818 109.648 74.9656 109.563C75.8473 109.63 74.3556 110.765 75.6118 110.862C76.2157 111.121 76.9827 110.892 77.5082 111.121C77.2183 111.405 76.6747 111.357 76.6747 111.357C76.4513 111.713 76.5781 111.852 76.9103 111.943C76.7049 111.985 76.566 112.1 76.3486 112.269C76.4754 112.408 77.17 112.027 76.9586 112.378C76.7049 112.45 76.3003 112.583 76.0225 112.613C76.3124 112.716 76.8016 112.716 77.0914 112.819C76.7472 113.048 76.4694 112.97 76.1916 113.012C76.4694 113.157 76.8136 113.429 77.4296 113.211L77.5686 112.97C77.635 113.036 77.0854 113.253 76.9525 113.247C76.403 113.278 77.019 112.879 77.2304 112.764L77.4357 112.837C78.6194 112.1 76.9586 112.384 76.9042 112.064L77.8705 111.762L76.9888 111.816C77.2002 111.647 77.6954 111.375 77.8886 111.454C78.257 111.055 77.484 111.423 77.9188 111.025C77.9913 110.971 78.0396 110.958 78.0819 110.964L77.7256 110.892C77.9369 110.844 78.3657 110.578 78.2812 110.753C78.6677 110.185 77.3511 110.493 77.9973 110.065H78.0638C77.5444 109.72 77.3632 110.306 76.403 110.27L77.9853 109.346L77.2787 109.569C77.2847 109.509 77.2968 109.388 77.5806 109.298C77.0431 109.298 77.2968 109.449 76.8076 109.509C77.3451 109.02 76.2641 108.941 77.3451 108.476C76.7895 108.585 77.025 108.863 76.566 108.736C77.7256 108.229 76.252 108.506 76.717 108.084C77.3572 107.933 77.1096 108.259 77.5746 107.842C76.4875 108.078 77.6471 107.335 77.3813 107.22C76.5419 107.492 76.9042 106.924 76.5298 106.695C76.8136 106.622 76.8016 105.952 77.019 105.565L77.1639 105.529C76.3003 105.722 76.3547 105.372 76.1191 105.197C76.6325 105.064 76.8438 105.046 77.1096 105.1C77.0854 105.034 77.0673 104.961 77.0492 104.895C76.7653 104.925 76.6023 104.895 76.4694 104.786L77.1216 104.665C77.019 104.4 76.2218 104.303 76.56 103.832C75.9561 103.959 74.9656 104.551 74.4643 104.261C74.7844 104.164 75.334 104.013 75.4971 104.08C75.4488 104.055 75.1951 104.025 75.3159 103.929L75.9017 103.947C76.101 103.723 75.4246 103.977 75.4367 103.826C75.9017 103.711 75.7447 103.645 76.1131 103.572C76.1674 103.596 75.95 103.735 76.1433 103.741C76.1855 103.572 76.415 103.325 76.7532 103.186C76.4935 103.264 76.1312 103.337 76.0406 103.24C75.9379 102.968 76.5721 103.017 76.7774 102.793C76.4392 102.799 76.7412 102.546 76.0406 102.697C76.0285 102.612 76.3486 102.528 76.5298 102.449C76.1916 102.371 76.3003 101.791 75.5937 102.111L75.5514 102.159C75.5514 102.159 75.5333 102.147 75.5152 102.141C74.724 101.791 75.6843 101.054 75.3159 100.631L75.5514 100.589C75.2374 100.347 75.2917 99.9729 74.7482 99.8461C74.7361 99.7615 75.1468 99.5743 75.4306 99.5683C75.2193 99.375 74.9475 99.3871 75.2857 99.0126C75.7326 99.1757 75.636 98.8858 75.6239 99.1938C75.7869 98.8798 76.1433 98.765 75.4608 98.5476C76.0768 98.5657 76.1976 98.2336 76.0044 98.1188L75.5937 98.3725C75.485 98.2336 75.5273 98.0886 75.5635 97.9497L76.3667 97.9256C77.2726 97.2431 74.5912 97.0619 76.1674 96.452C75.5937 96.3493 75.8111 96.8022 75.1407 96.7298C75.2132 96.4459 76.3546 96.0594 76.3426 95.9809C76.7593 95.5823 75.1468 95.7333 75.4186 95.3226C75.1347 95.3951 74.3798 95.4978 74.0839 95.2199C74.1684 94.9361 75.2615 94.8032 75.5031 94.9603C75.5333 95.0206 75.4427 95.0629 75.3461 95.0629C75.4548 95.1414 75.5877 95.2501 75.8896 95.1233L75.5997 95.1112C75.8836 94.9603 75.8232 94.5919 76.3003 94.6523C76.0104 94.465 75.8232 94.5919 75.6843 94.7549C76.0708 94.3865 75.6601 94.2174 75.9259 93.849C75.7688 93.9094 75.4367 93.9819 75.4367 93.9215C75.7749 93.384 74.8871 93.7162 74.7482 93.3598C75.177 93.1424 75.793 93.3961 75.4125 93.0518C75.7024 92.8284 76.1735 92.9854 76.409 93.0639C75.8473 92.7559 76.7532 92.46 76.8438 92.2788L77.0794 92.4419C76.9405 92.3452 76.9405 92.2607 76.9405 92.1822L76.3667 92.2848C76.4634 92.1822 76.4694 92.1037 76.7049 92.0976C76.3305 92.001 75.7507 92.1882 75.2374 91.9889C75.5273 91.85 74.9294 91.5782 75.6903 91.5299C75.4306 91.9527 76.4573 91.4816 76.5781 91.8319C76.4875 91.7655 76.4936 91.6809 76.5902 91.5843C76.6747 91.5662 76.7472 91.5964 76.7895 91.6266C77.4719 91.234 75.9319 91.4454 75.95 91.0287C76.3788 91.083 76.7653 90.9381 76.6747 90.8716C76.6627 91.0347 75.9621 90.9441 75.6299 90.7871C75.9621 90.5214 75.3823 90.4912 75.4246 90.3523L75.2676 90.5093C74.8388 90.4489 74.8931 90.316 74.7603 90.1228C75.0924 90.1167 74.9898 90.2979 75.1347 90.2375C74.3798 90.008 75.9319 89.7846 75.4306 89.4826C75.7266 89.3558 76.2339 89.4947 76.4392 89.386C75.8957 89.0417 77.0431 89.0659 76.5962 88.7096C76.0164 88.776 76.1553 88.8062 75.6058 88.5405L75.9863 89.1142L75.1649 88.7156C75.1468 88.8847 75.5152 89.09 75.4125 89.1867C74.9475 88.9934 75.0924 89.0176 74.6093 89.084C75.485 88.8847 74.1261 88.5948 74.718 88.3472L76.1433 88.4317C76.7895 88.0694 75.4487 87.6768 75.8473 87.1816L75.5877 87.3326C75.026 87.2239 75.5333 87.0065 75.3159 86.8192C75.793 86.8736 75.9681 86.777 76.2701 86.7347C75.9138 86.7166 76.3305 86.3603 75.3884 86.2274L76.0346 86.0522C76.3184 85.6597 74.7301 85.4423 74.9354 85.0437C75.4367 85.2188 75.793 85.0739 76.1312 85.3819C76.1493 85.249 76.252 85.1343 75.9259 85.098C76.2339 85.0558 75.328 84.6511 75.793 84.5787C75.5937 84.5001 75.0985 84.4216 75.1528 84.2707C75.2495 84.2707 75.3884 84.3008 75.3884 84.3008C75.1528 84.2707 75.0985 84.023 74.5549 84.0955C76.0708 83.86 74.5972 82.8997 75.9198 82.7125C75.8051 82.3924 75.7084 82.018 75.7145 81.7402C75.8534 81.7825 75.95 81.7764 75.8957 81.8187C76.3909 81.5228 74.573 81.3718 75.1407 81.0275C75.9379 80.943 75.5091 81.3235 75.8232 81.2329C77.3813 81.4382 75.7024 80.6893 76.6566 80.5685L76.7351 80.6531C77.2968 80.5383 76.2459 80.025 76.4211 79.6928C76.4211 79.6928 76.5539 79.7351 76.6506 79.7412C75.9077 79.3607 75.7386 78.8111 75.5816 78.4246C76.1674 78.642 75.8715 78.642 76.4996 78.6843C76.4392 78.5091 75.5031 78.5514 75.3884 78.2072C75.7386 78.1649 76.0648 77.9777 76.7291 78.0562L76.711 78.3702C77.5927 78.3521 76.7472 77.9656 76.9163 77.8267L77.2847 77.9052C77.2364 77.41 76.3003 77.265 76.4332 76.7759L76.1433 76.7879C75.2434 76.3954 76.6929 76.6249 76.0346 76.2686L76.9888 76.2987C76.7834 76.0874 76.1493 75.5559 75.9983 75.2238C76.6868 75.4774 77.0069 75.8941 77.3934 76.184C77.4236 76.0028 77.3934 75.5559 76.9344 75.417C77.019 75.5016 77.2424 75.6163 77.0914 75.6707C76.3667 75.3687 76.0285 75.0486 76.0768 74.6983C77.9188 74.9218 76.6143 73.8105 78.0638 73.6475C77.4176 72.965 78.4322 72.3853 78.3476 71.6304C76.9042 71.8417 78.3114 71.4129 76.8378 71.4069C76.7472 71.2318 76.7774 71.1714 76.874 71.1593L77.7678 70.658C78.2027 70.5433 78.0879 70.8271 78.4201 70.8211C78.5409 70.4406 79.0482 70.6761 79.4468 70.4285C78.9153 70.4708 78.6919 70.2836 78.8972 70.0662L78.2087 70.3621C77.4296 69.8246 79.4589 69.9152 78.6798 69.3716L79.1448 69.5468C78.873 69.269 79.1569 68.5201 77.9671 68.2664C78.1362 68.2181 78.5409 68.1517 78.6496 68.2664C78.8187 67.6021 77.3693 66.8351 78.0819 66.3158L78.4443 66.358C78.3355 66.2372 77.7618 66.1648 78.1181 66.0017C78.2691 66.0017 78.4805 66.0379 78.4986 65.9836C78.3718 65.9232 77.8524 65.6816 78.0577 65.5125L78.4684 65.6333C78.9153 64.9811 77.4478 64.6972 77.17 64.1899C78.2329 64.1416 78.553 63.6283 78.716 63.3746H78.867C78.9576 62.6318 77.9188 62.1728 77.4598 61.5326C78.0215 61.285 78.1242 60.9226 78.1544 60.5361C78.1725 60.3429 78.1725 60.1375 78.2027 59.9443C78.2329 59.7329 78.2933 59.5215 78.4382 59.3283C78.257 59.4551 77.6108 59.3766 77.4961 59.2618C77.6954 59.0746 76.723 58.8753 77.6954 58.8028L77.6833 58.8632C78.6194 58.6458 78.3295 58.3197 78.3235 58.0479L77.0492 58.1566C77.9309 57.7037 77.6954 57.2688 77.4478 56.8823C77.1941 56.5079 76.9223 56.1757 77.7135 55.8617C77.3693 55.753 77.3391 55.5537 77.0009 55.445L77.6773 55.3423C77.7739 54.8652 77.8222 54.6297 77.5625 54.1103L78.0638 54.1344C78.0517 53.8143 76.0527 54.0922 75.9621 53.8264L76.9525 53.5607C76.8438 53.0353 77.6289 52.3528 76.6264 52.0026C76.7774 51.9844 77.0673 51.9482 77.1216 52.0267C77.1035 51.7791 77.641 50.9819 76.2761 51.302C77.176 51.1389 76.2761 50.7645 75.8353 50.5531L76.5056 50.4867C75.6179 50.3901 75.3884 50.4202 75.0985 50.1304C75.1709 50.0398 75.6239 49.9854 75.4669 50.1122C75.7749 49.8042 74.8086 50.0035 75.1166 49.6412L75.5575 49.6955C75.5695 49.4238 75.3461 49.4781 74.8327 49.3996C74.5429 49.2667 74.9354 48.8742 75.5333 48.7655C75.1589 48.7776 74.6455 48.687 74.8086 48.5118C75.032 48.4635 75.183 48.5058 75.2555 48.5239C75.6662 48.0408 74.4039 47.9502 75.0381 47.5878C75.2615 47.5637 75.3702 47.5335 75.4367 47.5033C75.4427 47.8475 75.4487 48.1253 75.3944 48.1072C76.0104 48.0408 76.0889 47.7629 76.9646 47.8898C76.4754 47.7267 75.4306 47.4368 75.7024 47.1469C75.7628 47.1288 75.8171 47.1107 75.9138 47.0986L75.9863 47.1228C76.0406 47.0563 75.9862 47.008 75.8715 46.9658C75.9681 46.8752 76.0346 46.8148 76.0406 46.7363C76.5539 46.6759 76.3063 46.4162 76.3245 46.2833C75.648 46.3256 75.7447 46.1384 75.1951 46.3316C75.2434 46.3075 75.2796 46.3558 75.3098 46.4464C75.328 46.4645 75.34 46.4886 75.3823 46.5007C75.3642 46.5007 75.34 46.5007 75.3219 46.4947C75.3461 46.5853 75.3642 46.7 75.3823 46.8329C75.032 46.7483 74.7361 46.6457 75.1045 46.4705C74.6636 46.4222 74.2107 46.3618 73.9993 46.3196C74.9354 46.084 75.4367 45.7156 76.0225 45.6552C75.8292 45.4559 75.7688 45.2204 75.5877 44.9909C75.4125 44.7433 75.1287 44.5198 74.4885 44.3688C74.3254 44.236 74.8569 44.2239 75.0562 44.1816C75.183 44.2541 75.1649 44.3447 75.3461 44.387C75.02 44.1273 75.2193 43.626 74.3315 43.5535C74.7361 43.2335 75.1528 43.7408 75.0079 43.2999L75.2797 43.3603C76.7049 42.4967 73.0089 41.9169 74.8388 40.9687C74.724 41.0351 74.6757 41.0653 74.5247 41.0835C75.334 39.9843 73.7759 38.8066 75.0562 37.7256C75.3159 37.4176 74.7482 37.3814 74.3134 37.1881L75.0441 37.1217L74.2047 36.7955C73.5886 36.3365 75.9983 36.0104 74.8327 35.4246L74.3436 35.4971C74.4402 35.2917 74.0537 34.8388 74.6214 34.875C74.5308 34.8509 74.108 34.8086 74.3677 34.724H74.7482L74.0959 34.2047C74.3737 33.8061 75.6118 34.2711 75.6843 33.6913C75.5393 33.4739 74.573 33.0753 74.3194 33.1599C74.3013 33.2444 74.0839 33.3833 73.6973 33.3894L73.498 33.1901C72.3747 33.1538 71.2212 33.0028 70.4361 33.486L71.1246 33.8242L70.5811 33.9329L70.5448 33.649C70.0315 33.8061 70.4844 33.9087 70.7985 34.0235C70.5086 34.0476 70.3032 34.096 70.1945 34.1624L71.2695 34.4946C70.8287 34.5308 70.3938 34.3436 70.1523 34.567C70.6535 34.724 71.1367 34.4221 71.4688 34.6757C70.9555 34.8328 70.5388 34.7905 70.9736 34.9777C70.6837 35.0019 70.4965 34.9656 70.3697 34.8871C70.7139 35.0562 70.5146 35.328 71.1125 35.4186C70.4784 35.5816 71.2756 35.9863 70.2127 35.9681C70.4663 36.0225 71.0461 36.2641 71.0884 36.4211C69.8141 36.1372 71.0098 36.9948 69.645 36.9163C70.7924 37.1277 70.1523 37.6712 70.7864 38.0396C70.6958 38.0215 70.5086 37.9792 70.569 37.943C70.4723 38.1483 70.1281 38.2087 69.9107 38.3416C70.8589 38.3718 71.0702 38.6979 71.6561 38.8731C70.7441 39.1207 70.5448 38.71 69.6691 38.7885C70.4361 38.7825 70.4361 39.2354 71.0702 39.1509C70.5025 39.3441 70.7985 39.3139 70.0134 39.4106C71.1971 39.4528 70.2127 39.5917 70.9374 39.7608C70.3516 40.0387 69.8261 39.8273 70.1885 40.1353C69.8261 40.2802 69.4094 40.0024 69.4094 40.0024H69.494ZM71.6138 47.5335H71.6017C71.5836 47.467 71.5655 47.4127 71.5534 47.3764C71.5655 47.4066 71.5836 47.4549 71.6198 47.5335H71.6138ZM71.6802 48.1857C71.6983 48.1072 71.6923 48.0045 71.6802 47.9018C71.9097 47.8596 72.1573 47.8656 72.1452 47.926C71.9882 47.9019 71.8614 48.071 71.6802 48.1857ZM76.2761 46.5551C76.3788 46.6396 76.2459 46.6759 76.107 46.694C76.095 46.6517 76.0708 46.6034 76.0164 46.543C75.9923 46.543 75.9621 46.543 75.9319 46.537C76.0648 46.537 76.1855 46.537 76.2761 46.5551Z" fill="#202020"/>
<path d="M75.3763 46.4405C75.3763 46.4405 75.334 46.4224 75.328 46.4043C75.2676 46.4285 75.2193 46.4466 75.177 46.4647C75.2495 46.4707 75.3219 46.4768 75.3884 46.4888L75.3763 46.4405Z" fill="#202020"/>
<path d="M75.6178 102.129L75.6299 102.111C75.6299 102.111 75.5816 102.141 75.5393 102.159C75.5695 102.141 75.5876 102.141 75.6178 102.129Z" fill="#202020"/>
<path d="M71.7527 56.9489L71.9218 56.9187L71.7648 56.8945L71.7527 56.9489Z" fill="#202020"/>
<path d="M74.1683 106.012C74.114 106.036 74.0596 106.067 74.0173 106.103C74.0596 106.091 74.114 106.054 74.1683 106.012Z" fill="#202020"/>
<path d="M74.4763 107.51L74.3132 107.788C74.4159 107.655 74.4582 107.57 74.4763 107.51Z" fill="#202020"/>
<path d="M74.5308 108.73C74.6455 108.706 74.7361 108.681 74.8146 108.657L74.5308 108.73Z" fill="#202020"/>
<path d="M70.9192 90.3703C70.9192 90.3703 70.9071 90.3401 70.889 90.3219C70.7561 90.2132 70.8105 90.2857 70.9192 90.3703Z" fill="#202020"/>
<path d="M72.6768 95.8478C72.5499 95.7994 72.4231 95.7511 72.3446 95.6968C72.3023 95.7994 72.2903 95.878 72.6768 95.8478Z" fill="#202020"/>
<path d="M70.5268 84.0533C70.5268 84.0533 70.5268 84.0533 70.5389 84.0533C70.5389 84.0412 70.5389 84.0292 70.5389 84.0171L70.5208 84.0533H70.5268Z" fill="#202020"/>
<path d="M72.3325 95.4434C72.2057 95.5521 72.2419 95.6306 72.3385 95.697C72.3808 95.6125 72.4412 95.5158 72.3325 95.4434Z" fill="#202020"/>
<path d="M76.2158 113.585V113.652C76.2581 113.634 76.2883 113.616 76.3185 113.61L76.2158 113.585Z" fill="#202020"/>
<path d="M76.3184 113.61L76.421 113.634C76.421 113.634 76.3908 113.586 76.3184 113.61Z" fill="#202020"/>
<path d="M76.6325 113.67L76.4211 113.627C76.4393 113.67 76.4453 113.73 76.6325 113.67Z" fill="#202020"/>
<path d="M75.8413 112.027L75.6118 112.112C75.6601 112.1 75.7386 112.076 75.8413 112.027Z" fill="#202020"/>
<path d="M75.5876 111.623C75.5815 111.749 75.2192 112.094 75.4245 112.178L75.6117 112.112C75.2494 112.19 76.0164 111.556 75.5936 111.623H75.5876Z" fill="#202020"/>
<path d="M77.6894 108.706L77.635 109.128C77.8585 108.971 78.1544 108.766 78.2752 108.899C78.8489 108.18 77.7618 109.201 77.6894 108.706Z" fill="#202020"/>
<path d="M77.6531 107.498C77.8343 107.643 78.0094 107.371 78.1543 107.329C77.8826 107.293 77.8161 107.28 77.6531 107.498Z" fill="#202020"/>
<path d="M75.6782 99.4714L76.2942 99.399C76.1855 99.2601 76.0587 99.4352 75.6782 99.4714Z" fill="#202020"/>
<path d="M72.2961 98.2876L71.9277 98.4929H72.5015L72.2961 98.2876Z" fill="#202020"/>
<path d="M76.554 96.8446L76.6506 96.8989L76.397 96.6694L76.554 96.8446Z" fill="#202020"/>
<path d="M76.6506 83.1415L75.8896 83.0811C76.0104 83.2018 76.8559 83.3407 76.6506 83.1415Z" fill="#202020"/>
<path d="M76.9042 76.9025C77.2907 76.8844 77.5565 76.7334 77.2001 76.5703C77.1277 76.7092 76.8197 76.8119 76.9042 76.9025Z" fill="#202020"/>
<path d="M78.0276 57.7155L78.2994 57.8121L78.0578 57.5947L78.0276 57.7155Z" fill="#202020"/>
<path d="M103.943 145.317C104.148 145.395 104.619 145.353 104.528 145.135L103.731 144.984L103.943 145.317Z" fill="#202020"/>
<path d="M105.44 143.903C105.054 143.649 104.377 143.353 103.641 143.498C104.408 143.758 104.088 143.812 104.999 144.09C105.09 144.301 104.74 144.458 104.444 144.416C104.649 144.495 104.263 144.742 104.764 144.863C105.386 144.591 105.41 144.247 104.903 143.879C105.078 143.8 105.289 143.879 105.434 143.903H105.44Z" fill="#202020"/>
<path d="M107.071 123.333L106.986 123.472C107.035 123.43 107.065 123.387 107.071 123.333Z" fill="#202020"/>
<path d="M105.531 110.542C105.567 110.633 105.652 110.657 105.724 110.645C105.658 110.566 105.591 110.506 105.531 110.542Z" fill="#202020"/>
<path d="M105.99 108.259C105.972 108.307 105.972 108.349 105.96 108.392C106.02 108.331 106.056 108.277 105.99 108.259Z" fill="#202020"/>
<path d="M107.071 123.333L107.3 122.971C107.041 122.965 107.119 123.158 107.071 123.333Z" fill="#202020"/>
<path d="M103.58 141.004C103.616 141.077 103.689 141.137 103.785 141.198C103.755 141.137 103.725 141.077 103.707 141.023C103.665 141.023 103.628 141.01 103.58 141.004Z" fill="#202020"/>
<path d="M107.826 129.016V129.119C107.916 129.149 108.025 129.179 108.152 129.209L107.826 129.016Z" fill="#202020"/>
<path d="M107.832 133.365C107.862 133.268 107.186 133.207 106.896 133.159C107.174 133.226 107.306 133.304 107.355 133.389C107.482 133.395 107.639 133.389 107.838 133.365H107.832Z" fill="#202020"/>
<path d="M106.358 140.135L106.449 140.262C106.419 140.231 106.394 140.177 106.358 140.135Z" fill="#202020"/>
<path d="M107.959 125.876C108.061 125.864 108.146 125.852 108.2 125.833C108.116 125.833 108.031 125.852 107.959 125.876Z" fill="#202020"/>
<path d="M96.6289 5.58461C96.6772 5.59669 96.7074 5.59669 96.7497 5.60273C96.6893 5.56045 96.641 5.54233 96.6289 5.58461Z" fill="#202020"/>
<path d="M102.076 1.88818L102.046 1.96066C102.119 2.06936 102.185 2.17203 102.264 2.2747L102.076 1.88818Z" fill="#202020"/>
<path d="M106.165 104.279C106.165 104.279 106.165 104.291 106.153 104.297C106.243 104.388 106.225 104.333 106.165 104.279Z" fill="#202020"/>
<path d="M102.964 68.5203C102.354 68.925 102.185 67.8379 101.509 68.4539C101.774 68.3995 102.565 69.0337 102.964 68.5203Z" fill="#202020"/>
<path d="M103.671 140.895C103.671 140.835 103.659 140.775 103.671 140.72C103.647 140.799 103.647 140.853 103.671 140.895Z" fill="#202020"/>
<path d="M101.515 68.4536H101.509L101.442 68.52C101.472 68.4959 101.484 68.4778 101.515 68.4536Z" fill="#202020"/>
<path d="M104.848 95.6064C104.728 95.6306 104.637 95.6668 104.552 95.7031C104.619 95.7031 104.703 95.6729 104.848 95.6064Z" fill="#202020"/>
<path d="M104.474 102.232L104.54 102.057C104.486 102.129 104.474 102.183 104.474 102.232Z" fill="#202020"/>
<path d="M103.689 92.0072C103.731 91.9106 103.822 91.8683 103.719 91.7476C103.683 91.7596 103.665 91.7778 103.641 91.7959C103.737 91.8321 103.786 91.8925 103.689 92.0072Z" fill="#202020"/>
<path d="M103.278 88.2627C103.23 88.2869 103.194 88.317 103.151 88.3472C103.169 88.3835 103.188 88.4258 103.2 88.462L103.278 88.2627Z" fill="#202020"/>
<path d="M97.3175 17.3553C97.5047 17.2768 97.7161 17.2284 97.9214 17.1801C97.4443 17.2526 97.245 16.7936 97.3175 17.3553Z" fill="#202020"/>
<path d="M103.961 141.016C103.791 140.986 103.707 140.956 103.671 140.896C103.677 140.938 103.689 140.98 103.701 141.022C103.804 141.034 103.894 141.04 103.955 141.022L103.961 141.016Z" fill="#202020"/>
<path d="M98.344 92.3151L98.3983 91.7534C98.35 91.9165 98.3319 92.1158 98.344 92.3151Z" fill="#202020"/>
<path d="M97.4199 43.6685L97.3414 43.5356C97.3233 43.59 97.3414 43.6323 97.4199 43.6685Z" fill="#202020"/>
<path d="M98.1145 90.1111C98.338 89.9842 98.4648 89.8574 98.5433 89.7366C98.4889 89.7185 98.4406 89.7004 98.3621 89.6943L98.1145 90.1111Z" fill="#202020"/>
<path d="M95.9887 13.5865C96.0249 14.1603 96.8825 13.7677 97.4079 13.8402C97.722 14.4864 96.7859 14.2146 96.3511 14.4864C96.6289 14.879 97.4744 15.1145 97.4683 15.4165C97.3234 15.4527 97.2751 15.5191 97.0879 15.4648C97.8367 15.8332 97.2388 16.7028 98.1508 17.1014C98.0723 17.1377 97.9998 17.1618 97.9334 17.1739C98.3742 17.0773 98.8272 17.041 99.1533 17.041C99.1775 17.2705 99.7391 17.4638 99.1533 17.5665C99.1714 17.4276 98.9299 17.4215 98.7487 17.3611L99.0084 17.5906C98.1749 17.8141 98.7124 17.2766 98.0904 17.3007C98.3803 17.6993 99.0688 18.3214 98.8332 18.7139C98.0119 18.7985 98.5554 17.796 97.8247 18.3214C97.9273 18.1281 98.036 17.9047 98.1387 17.7295C97.4925 17.9349 97.5167 17.8503 97.5287 17.7658C97.5408 17.6872 97.5348 17.6148 96.8463 17.7778C96.6108 18.5569 97.263 18.6656 97.0275 19.4568C97.4804 19.6379 97.7039 19.3964 98.1568 19.5776C98.9782 20.7069 96.0914 20.4653 97.1845 21.2988C97.7341 21.5162 98.7668 21.5947 98.2172 22.1865L97.2872 21.9872C97.1966 22.7603 98.6219 22.4281 97.9938 23.2374C97.6314 23.0924 97.6858 22.6335 97.577 22.7482C96.8463 23.2736 98.1025 23.1166 98.1025 23.5212L97.2811 23.6058C97.4079 24.4271 98.0058 25.333 98.1508 26.245C97.9092 26.1967 97.6495 26.0396 97.3959 26.251C97.8065 27.3985 97.2932 28.703 96.8101 29.8082L97.5167 30.2309C97.5106 30.3276 97.1966 30.4121 97.0577 30.3094C96.7859 30.7382 97.5046 30.3336 97.7884 30.5389C97.8367 30.7865 97.3838 30.8651 97.1664 30.708C97.7703 31.469 98.4588 32.8761 97.7039 33.6794L97.4925 33.5224C97.2026 34.1444 98.948 34.229 98.2836 34.8087L98.1568 34.7C97.8488 36.0589 98.5011 37.5566 97.4261 38.5893C98.4467 38.7886 96.9731 39.9301 98.3924 40.0207C97.6857 40.7937 97.4321 40.5702 96.955 41.6634C96.8886 41.9533 97.8428 42.0982 97.9938 42.4606H97.2509L98.03 42.9558L97.1422 43.2155L97.3355 43.5537C97.3777 43.4208 97.6676 43.2698 97.885 43.2879C98.2233 43.8134 97.3657 44.5743 96.9852 44.5864L97.6133 45.8365C97.3113 45.8063 97.2086 45.601 97.0214 45.4319C97.7824 46.0962 96.2363 45.5527 96.9308 46.1627C97.0999 46.0841 97.3717 46.2049 97.5227 46.223C97.0697 46.525 97.0697 47.2195 97.257 47.7329L96.7436 47.6302C96.6108 48.5542 96.9852 49.5809 96.9792 50.6197C97.2207 50.2513 98.1085 50.3358 98.1931 50.6438L97.4079 50.7646C97.8911 50.9639 97.7039 50.4506 98.3018 50.8552C98.2112 51.2417 97.4079 51.1149 97.1483 50.8914L97.42 51.3625C97.1845 51.3867 97.0637 51.278 96.7617 51.2478C97.2509 51.441 95.9706 52.057 96.8221 52.3409L96.5866 52.365C96.5806 53.4038 96.8463 53.8749 96.8886 54.7204C97.571 54.7385 97.414 55.0707 97.9636 55.3243C97.7461 55.9464 97.2147 56.6288 97.269 57.3777C97.6072 57.9031 97.8428 57.5347 98.2474 57.7763C97.6314 57.8125 97.6858 58.5614 97.2449 58.1688C97.3415 59.0687 97.3657 59.3163 97.8669 60.4577C98.1206 60.3369 98.2293 60.198 98.4407 60.2705C98.5433 60.4759 98.181 60.7355 97.885 60.7053L97.8186 60.651C98.7426 61.9313 96.0129 63.5801 97.2992 64.6068L97.2328 64.5464L97.9032 65.6032C97.7945 66.0864 97.4381 65.3073 97.0577 65.6636C98.0904 66.8111 96.9067 67.4573 97.5952 68.3994C95.7713 69.106 97.722 70.9722 96.5564 71.9324L96.9852 71.8841C97.4079 72.1438 96.7376 72.1861 96.641 72.3733C96.9731 72.3492 97.0275 72.1016 97.263 72.2646C97.5227 73.3396 97.3596 74.4388 97.0939 75.544C96.8221 76.7156 96.4537 77.9718 96.345 79.1555C96.2846 80.0312 98.5977 79.4756 97.6556 80.617L96.8342 80.3815C97.9334 81.994 97.1603 83.8299 98.181 85.3156C97.9877 85.2431 97.7461 85.2733 97.728 85.1163C97.1966 85.533 97.8669 86.3604 98.338 86.3C98.3199 86.5536 97.9213 86.4147 97.7039 86.5959C97.4079 86.9764 98.5494 87.3327 97.9998 87.5803C97.9092 87.6226 97.8005 87.5139 97.7461 87.4595C98.0542 87.6347 97.8065 88.4681 98.4467 88.1782C98.2051 88.8003 98.8876 89.2532 98.5494 89.7605C99.3285 89.9719 98.3078 90.7872 99.3647 90.7631C98.2716 90.8416 98.5977 91.8501 99.1352 92.1642C98.797 92.0736 98.8211 92.5024 98.3561 92.4058C98.4044 92.8104 98.64 93.1667 99.1895 93.052C97.9394 93.8733 100.331 94.5074 98.6641 94.9966C98.8211 95.2684 98.9721 95.6187 99.105 95.9327C99.2318 96.2528 99.3586 96.5668 99.4855 96.8748C99.727 97.4848 99.9203 98.0827 100.108 98.6565C99.0084 98.7048 99.9022 97.352 98.7668 97.4788C99.2862 98.6021 100.277 99.1577 100.126 100.293C100.005 100.595 99.6365 100.178 99.4432 100.1C99.9988 101.175 99.5942 102.28 100.319 103.186C100.216 103.198 100.095 103.107 99.9988 103.017C100.059 103.204 99.9022 103.494 100.391 103.397L100.234 103.228C100.905 102.824 101.829 103.778 102.209 103.754C100.754 103.639 102.004 104.762 100.15 104.521C100.265 104.635 100.518 104.756 100.838 104.678C100.772 104.883 100.591 104.974 100.186 104.841C100.56 105.487 101.044 105.161 101.134 105.783C100.899 105.819 100.784 105.71 100.494 105.692C101.007 105.934 101.521 106.169 101.412 106.725C101.267 106.719 101.092 106.81 101.068 106.653C101.297 107.54 102.566 107.957 102.306 109.014C101.225 108.917 102.034 109.406 101.158 109.63L101.521 110.107L101.907 109.811C101.98 110.276 102.704 110.554 102.493 111.001L102.064 110.735L102.402 111.562L102.644 111.013C103.194 111.387 103.755 110.741 103.628 111.399C103.514 111.297 103.707 111.858 103.236 112.197C103.562 112.366 103.906 112.535 103.755 112.921C103.49 113.066 102.765 113.048 102.584 113.145C103.369 113.217 103 114.171 103.846 114.292C103.641 114.238 103.175 114.322 103.091 114.371L103.731 114.437C103.58 114.685 103.496 114.733 103.115 114.775C103.133 115.434 104.196 114.353 103.864 115.198C103.804 115.15 103.719 115.198 103.604 115.089C103.502 115.893 104.287 116.479 104.106 117.215C103.248 117.578 103.785 116.666 103.073 117.04C103.236 117.499 103.592 117.952 103.9 118.411C104.202 118.876 104.438 119.359 104.395 119.848L104.474 119.655C105.766 119.637 103.942 120.44 104.583 120.857C104.474 120.748 103.858 120.772 104.003 120.791C103.864 121.461 104.45 122.089 104.909 123.073L104.571 122.971C104.305 123.375 104.468 124.003 104.329 124.432C104.661 124.541 104.619 124.789 105.09 124.626C104.184 125.314 104.444 125.918 104.746 126.522C105.048 127.12 105.38 127.718 104.595 128.297C104.595 128.159 104.311 127.965 104.305 128.074L104.601 129.064C105.156 128.992 104.939 128.938 105.374 128.732C105.706 128.859 105.96 129.149 105.954 129.397C105.591 128.944 105.06 129.391 104.74 129.578C104.909 129.548 105.096 129.62 105.271 129.602C104.269 130.109 106.394 129.711 105.712 130.411L105.422 130.369C105.567 130.641 105.954 130.894 105.857 131.184C105.205 131.287 105.567 130.894 105.036 130.858C105.06 131.263 106.237 131.692 105.579 132.036C105.404 131.861 105.41 131.613 105.235 131.432C104.468 131.806 104.655 131.861 104.528 132.151L104.546 132.12L104.184 132.791L104.395 132.622C106.062 133.189 104.661 133.66 105.742 134.385C104.722 133.678 105.144 134.252 104.414 134.174C104.202 134.337 103.967 134.596 103.761 134.512C104.335 134.856 103.272 135.031 104.118 135.52C103.882 135.533 104.081 135.865 103.49 135.768C103.659 136.197 103.906 135.684 104.196 135.732C104.975 136.414 103.157 137.212 104.22 138.196C104.643 139.023 105.428 139.204 105.797 139.965C105.41 140.201 104.945 139.724 104.945 139.724C104.583 140.116 104.637 140.43 104.891 140.823C104.685 140.738 104.51 140.811 104.244 140.92C104.293 141.234 105.096 141.155 104.734 141.548C104.474 141.469 104.057 141.367 103.798 141.21C104.003 141.584 104.432 141.952 104.637 142.339C104.226 142.429 104.021 142.097 103.755 141.952C103.93 142.387 104.1 143.07 104.746 143.209L104.981 142.943C105.011 143.1 104.42 143.009 104.305 142.895C103.804 142.52 104.54 142.375 104.782 142.357L104.927 142.629C106.316 142.387 104.728 141.548 104.83 141.01L105.827 141.264L105.011 140.684C105.277 140.575 105.839 140.515 105.984 140.787C106.491 140.418 105.64 140.43 106.201 140.122C106.286 140.092 106.334 140.11 106.376 140.141L106.092 139.754C106.298 139.839 106.805 139.718 106.648 139.941C107.252 139.289 105.942 138.824 106.709 138.601L106.769 138.661C106.467 137.713 106.032 138.54 105.199 137.803L107.035 137.411L106.304 137.29C106.334 137.193 106.4 137.006 106.69 137.054C106.201 136.674 106.364 137.103 105.899 136.873C106.588 136.438 105.64 135.575 106.817 135.52C106.262 135.327 106.364 135.949 105.996 135.436C107.264 135.345 105.803 134.85 106.4 134.452C107.047 134.609 106.684 135.001 107.282 134.596C106.189 134.294 107.554 133.775 107.355 133.407C106.479 133.358 107.023 132.61 106.745 131.994C107.035 132.042 107.264 130.87 107.59 130.309L107.735 130.327C106.847 130.2 107.029 129.62 106.853 129.197C107.385 129.221 107.59 129.3 107.826 129.536V129.137C107.548 129.04 107.397 128.913 107.294 128.654L107.959 128.762C107.922 128.225 107.186 127.687 107.62 126.999C106.998 126.969 105.905 127.549 105.483 126.842C105.815 126.812 106.388 126.782 106.527 126.969C106.485 126.908 106.243 126.751 106.388 126.625L106.956 126.908C107.198 126.594 106.485 126.751 106.533 126.504C107.01 126.504 106.872 126.317 107.252 126.347C107.3 126.407 107.059 126.57 107.252 126.661C107.331 126.377 107.608 126.033 107.971 125.912C107.699 125.942 107.331 125.924 107.264 125.719C107.222 125.187 107.832 125.519 108.067 125.199C107.729 125.078 108.067 124.722 107.349 124.74C107.349 124.583 107.675 124.541 107.868 124.475C107.548 124.209 107.723 123.176 106.98 123.526L106.932 123.599C106.932 123.599 106.914 123.569 106.896 123.557C106.129 122.699 107.186 121.648 106.781 120.772L107.017 120.748C106.702 120.235 106.733 119.565 106.165 119.251C106.147 119.094 106.545 118.822 106.835 118.852C106.6 118.465 106.346 118.459 106.63 117.807C107.113 118.157 106.974 117.608 107.004 118.188C107.119 117.62 107.469 117.427 106.733 116.962C107.367 117.052 107.421 116.412 107.192 116.189L106.829 116.648C106.696 116.376 106.696 116.122 106.702 115.869L107.518 115.844C108.267 114.588 105.507 114.262 106.95 113.133C106.34 112.964 106.678 113.785 105.984 113.664C105.99 113.157 107.023 112.426 106.992 112.275C107.294 111.526 105.718 111.889 105.875 111.134C105.615 111.279 104.879 111.514 104.51 111.043C104.516 110.536 105.573 110.216 105.857 110.475C105.905 110.584 105.827 110.663 105.73 110.675C105.863 110.814 106.026 110.989 106.292 110.741H105.996C106.237 110.439 106.074 109.781 106.57 109.847C106.231 109.533 106.074 109.781 105.984 110.083C106.268 109.382 105.809 109.117 105.96 108.428C105.827 108.561 105.513 108.712 105.495 108.615C105.664 107.619 104.885 108.307 104.643 107.691C105.005 107.25 105.694 107.631 105.217 107.063C105.44 106.622 105.948 106.846 106.207 106.954C105.561 106.477 106.376 105.819 106.419 105.475L106.702 105.735C106.533 105.578 106.509 105.427 106.491 105.282L105.954 105.553C106.02 105.36 106.002 105.209 106.237 105.173C105.839 105.052 105.319 105.475 104.752 105.191C104.999 104.907 104.323 104.515 105.06 104.309C104.927 105.1 105.803 104.104 106.026 104.714C105.917 104.605 105.893 104.46 105.966 104.267C106.044 104.225 106.123 104.267 106.177 104.309C106.733 103.494 105.277 104.122 105.181 103.379C105.621 103.409 105.96 103.089 105.851 102.981C105.887 103.277 105.162 103.228 104.8 103.005C105.066 102.485 104.48 102.522 104.486 102.268L104.371 102.576C103.936 102.54 103.955 102.292 103.773 101.978C104.1 101.906 104.045 102.25 104.172 102.111C103.369 101.839 104.836 101.175 104.275 100.728C104.534 100.456 105.072 100.613 105.241 100.384C104.625 99.8764 105.76 99.7073 105.241 99.1638C104.685 99.3933 104.83 99.4114 104.226 99.0369L104.734 99.9851L103.834 99.4355C103.858 99.7375 104.263 100.033 104.178 100.221C103.677 99.967 103.822 99.9791 103.363 100.178C104.184 99.6771 102.771 99.4053 103.314 98.8678L104.74 98.7531C105.313 97.9982 103.906 97.5573 104.214 96.6091L103.985 96.9171C103.411 96.8265 103.87 96.3494 103.634 96.0656C104.112 96.0716 104.281 95.8784 104.571 95.7455C104.22 95.7697 104.577 95.0872 103.622 95.0027L104.232 94.5376C104.462 93.7103 102.831 93.6861 102.946 92.9251C103.477 93.1184 103.792 92.744 104.196 93.2392C104.184 92.9795 104.257 92.744 103.924 92.7621C104.214 92.5869 103.224 92.1038 103.659 91.832C103.441 91.7414 102.94 91.7535 102.958 91.4697C103.049 91.4274 103.194 91.4515 103.194 91.4515C102.958 91.4697 102.831 91.0409 102.33 91.3368C103.737 90.4128 101.992 89.2049 103.169 88.3896C102.94 87.8642 102.704 87.2361 102.602 86.7529C102.747 86.765 102.837 86.7228 102.801 86.8194C103.151 86.0826 101.388 86.5899 101.774 85.7565C102.487 85.2612 102.245 86.1067 102.499 85.8229C104.039 85.5089 102.161 84.9291 103 84.301L103.109 84.4097C103.586 83.9507 102.396 83.54 102.427 82.8878C102.427 82.8878 102.566 82.8999 102.662 82.8636C101.817 82.5315 101.454 81.7343 101.176 81.1424C101.805 81.2692 101.527 81.384 102.137 81.2089C102.022 80.9431 101.146 81.3961 100.917 80.8586C101.231 80.6472 101.491 80.2244 102.149 80.1157L102.227 80.623C103.055 80.2788 102.143 79.9708 102.27 79.6869H102.65C102.463 78.932 101.527 78.9864 101.539 78.1348L101.261 78.2375C100.301 77.8147 101.774 77.8268 101.062 77.392L102.01 77.2289C101.762 76.939 101.08 76.1962 100.893 75.6346C101.599 75.9607 101.962 76.5827 102.384 76.9572C102.384 76.6673 102.312 75.9667 101.841 75.8097C101.931 75.9305 102.167 76.0815 102.022 76.1962C101.273 75.8399 100.905 75.3205 100.923 74.7045C102.771 74.8374 101.388 73.1041 102.825 72.6693C102.143 71.5701 103.121 70.5072 103.012 69.2329C101.575 69.6677 102.97 68.8584 101.497 68.9249C101.406 68.6289 101.43 68.5142 101.521 68.49L102.402 67.6023C102.831 67.3909 102.729 67.8861 103.061 67.8619C103.176 67.2157 103.689 67.5962 104.081 67.1674C103.556 67.252 103.326 66.9319 103.526 66.5635L102.843 67.0768C102.058 66.1589 104.081 66.3038 103.308 65.3798L103.773 65.6757C103.502 65.2046 103.785 63.9424 102.602 63.4714C102.771 63.3868 103.175 63.2841 103.284 63.4895C103.465 62.3662 102.022 60.9832 102.759 60.1195L103.121 60.2101C103.018 59.9987 102.445 59.8417 102.807 59.582C102.958 59.5941 103.169 59.6666 103.188 59.57C103.061 59.4612 102.553 59.0083 102.765 58.7365L103.169 58.9781C103.647 57.885 102.179 57.2931 101.937 56.3751C103 56.3872 103.345 55.5236 103.52 55.0948L103.671 55.1129C103.804 53.8386 102.789 52.9448 102.378 51.7611C103.532 51.0364 102.867 49.285 103.514 48.1073C103.32 48.2885 102.686 48.0771 102.578 47.8657C102.795 47.5879 101.841 47.0988 102.813 47.1471L102.795 47.2437C103.749 47.0384 103.496 46.4707 103.526 46.0238L102.251 45.9452C104.106 44.7917 101.575 42.9075 103.236 42.2794C102.916 42.0016 102.922 41.6513 102.602 41.3735L103.284 41.3916C103.459 40.6186 103.544 40.226 103.381 39.2718L103.87 39.465C103.918 38.9275 101.895 38.7826 101.859 38.2874L102.88 38.1364C102.861 37.1943 103.761 36.24 102.831 35.31C102.982 35.3281 103.278 35.3523 103.314 35.5033C103.339 35.0624 104.003 33.7881 102.602 33.9511C103.514 33.9391 102.692 32.9788 102.288 32.4715L102.958 32.55C102.101 32.1212 101.865 32.1092 101.623 31.5052C101.714 31.3603 102.161 31.3784 101.992 31.5717C102.342 31.1006 101.352 31.2033 101.714 30.6295L102.143 30.8409C102.197 30.3517 101.962 30.394 101.46 30.1222C101.189 29.8142 101.629 29.1982 102.239 29.1257C101.871 29.0593 101.37 28.7936 101.545 28.5037C101.774 28.4674 101.919 28.5701 101.986 28.6245C102.445 27.8092 101.201 27.4106 101.865 26.8549C102.088 26.8429 102.197 26.8066 102.27 26.7583C102.251 27.4045 102.215 27.9239 102.167 27.8756C102.789 27.8756 102.898 27.3502 103.755 27.7669C103.29 27.3502 102.27 26.6315 102.566 26.1181C102.626 26.094 102.686 26.0698 102.783 26.0517L102.855 26.1061C102.916 25.9913 102.855 25.8826 102.753 25.786C102.855 25.6229 102.928 25.5203 102.94 25.3632C103.453 25.3028 103.218 24.7653 103.242 24.5056C102.559 24.5298 102.674 24.1856 102.113 24.5056C102.161 24.4634 102.191 24.554 102.221 24.7291C102.239 24.7653 102.251 24.8136 102.294 24.8378C102.276 24.8378 102.258 24.8257 102.233 24.8197C102.251 24.9888 102.27 25.2122 102.282 25.4659C101.937 25.2606 101.648 25.0431 102.022 24.7593C101.587 24.6264 101.134 24.4754 100.929 24.3969C101.877 24.0406 102.39 23.3521 102.97 23.2555C102.59 22.4583 102.717 21.3833 101.442 20.882C101.279 20.6586 101.811 20.6224 102.01 20.5378C102.137 20.6707 102.119 20.8217 102.3 20.8941C101.974 20.4412 102.173 19.5534 101.279 19.4447C101.684 18.877 102.101 19.7648 101.956 18.9797L102.227 19.0884C102.584 18.7019 102.62 18.3516 102.499 18.0194C102.439 17.8624 102.342 17.6691 102.221 17.4819C102.101 17.2947 101.962 17.1316 101.823 16.9565C101.267 16.2922 100.742 15.6762 101.569 14.728C101.466 14.8548 101.424 14.9212 101.279 14.9575C101.587 13.9429 101.297 12.9705 101.086 12.0042C100.881 11.044 100.748 10.0535 101.382 9.14161C101.635 8.62826 101.074 8.57995 100.645 8.24779L101.376 8.1572C101.104 7.97602 100.826 7.78276 100.56 7.58346C100.277 7.17883 100.754 6.87082 101.176 6.58697C101.599 6.29708 101.95 6.03739 101.484 5.49385H100.977C101.122 5.19189 100.989 4.41282 101.509 4.65439C101.436 4.60003 101.068 4.37658 101.346 4.35242L101.702 4.48529C101.593 4.18332 101.503 3.86928 101.442 3.53711C101.72 3.36197 102.016 3.60355 102.312 3.79077C102.608 3.98402 102.898 4.12897 103.073 3.97194C103.079 3.86928 102.958 3.56731 102.874 3.27742C102.777 2.9815 102.686 2.65537 102.572 2.58894C102.475 2.64329 102.191 2.58894 101.925 2.31113L102.052 1.95481C101.738 1.48374 101.484 0.964362 101.146 0.559727C100.82 0.155092 100.349 -0.134795 99.5519 0.0645026C99.4673 0.457059 99.4311 0.843575 99.4311 1.21801C99.2318 1.17574 99.0265 1.14554 98.8151 1.11534C98.9661 0.897929 99.1231 0.686553 99.2922 0.475177C98.6098 0.487255 98.7426 1.03079 98.8513 1.44751C98.5735 1.34484 98.332 1.3388 98.1327 1.44751C98.2836 1.89442 98.4648 2.31717 98.6762 2.70369C98.2353 2.60706 98.0481 1.97897 97.5891 2.39568C97.8911 2.94526 98.6279 2.48627 98.6883 3.16268C98.0783 3.30158 97.728 3.07209 97.9877 3.6277C97.6918 3.59147 97.5469 3.44652 97.4925 3.22911C97.6737 3.73037 97.3174 4.27995 97.8549 4.60607C97.1422 4.82953 97.7824 5.8079 96.7436 5.60256C96.9792 5.75958 97.4804 6.33936 97.4985 6.64737C96.8946 6.29708 96.8403 6.58697 96.7859 6.93725C96.7255 7.28149 96.6651 7.68009 95.9887 7.57138C97.106 8.05453 96.4537 9.11141 97.112 9.80593C97.0214 9.76969 96.8342 9.69722 96.8886 9.63079C96.804 10.0294 96.4598 10.1562 96.2544 10.4219C97.2026 10.434 97.4502 11.0319 98.0481 11.3097C97.1664 11.8351 96.9188 11.0983 96.0551 11.2976C96.8161 11.2312 96.8765 12.0767 97.5046 11.8653C96.9671 12.2639 97.257 12.1915 96.49 12.4391C97.6737 12.4028 96.7195 12.7592 97.4683 12.9887C96.9308 13.5503 96.3752 13.2242 96.7859 13.7496C96.4477 14.0516 95.9827 13.5926 95.9827 13.5926L95.9887 13.5865ZM98.3803 26.245H98.3682C98.3501 26.1302 98.338 26.0396 98.332 25.9732C98.344 26.0276 98.3561 26.1061 98.3863 26.245H98.3803ZM98.3924 27.3381C98.4165 27.2052 98.4226 27.0361 98.4165 26.861C98.652 26.8247 98.8936 26.861 98.8815 26.9757C98.7245 26.9153 98.5916 27.175 98.3924 27.3381ZM103.097 25.019C103.194 25.1941 103.061 25.2485 102.922 25.2726C102.91 25.1881 102.886 25.0975 102.843 24.9707C102.819 24.9707 102.783 24.9586 102.759 24.9526C102.886 24.9707 103.012 24.9888 103.097 25.019Z" fill="#202020"/>
<path d="M102.203 24.7048C102.203 24.7048 102.161 24.6686 102.155 24.6323C102.094 24.6686 102.046 24.6988 102.004 24.735C102.076 24.7531 102.149 24.7773 102.215 24.7954C102.215 24.7652 102.209 24.729 102.203 24.7048Z" fill="#202020"/>
<path d="M106.968 123.496L106.98 123.472C106.98 123.472 106.932 123.514 106.89 123.527C106.92 123.508 106.944 123.508 106.968 123.496Z" fill="#202020"/>
<path d="M97.0879 42.4545L97.257 42.4485L97.112 42.3579L97.0879 42.4545Z" fill="#202020"/>
<path d="M104.728 129.56C104.667 129.572 104.607 129.59 104.552 129.638C104.595 129.638 104.661 129.602 104.728 129.56Z" fill="#202020"/>
<path d="M104.51 132.132L104.257 132.489C104.402 132.338 104.468 132.223 104.51 132.132Z" fill="#202020"/>
<path d="M104.106 134.113C104.226 134.143 104.311 134.156 104.396 134.162L104.1 134.113H104.106Z" fill="#202020"/>
<path d="M99.9929 102.993C99.9929 102.993 99.9747 102.938 99.9506 102.92C99.7935 102.751 99.866 102.872 99.9929 102.993Z" fill="#202020"/>
<path d="M103.224 112.16C103.085 112.088 102.946 112.009 102.849 111.925C102.831 112.1 102.849 112.233 103.224 112.16Z" fill="#202020"/>
<path d="M98.332 92.3817C98.332 92.3817 98.332 92.3817 98.3441 92.3817C98.3441 92.3575 98.3441 92.3394 98.3441 92.3213V92.3817H98.332Z" fill="#202020"/>
<path d="M102.771 111.49C102.674 111.683 102.729 111.816 102.843 111.925C102.861 111.78 102.898 111.605 102.771 111.49Z" fill="#202020"/>
<path d="M103.466 142.816L103.435 142.913C103.478 142.913 103.514 142.913 103.544 142.925L103.466 142.816Z" fill="#202020"/>
<path d="M103.544 142.925L103.622 143.034C103.622 142.985 103.622 142.943 103.544 142.925Z" fill="#202020"/>
<path d="M103.792 143.269L103.628 143.04C103.628 143.118 103.604 143.215 103.792 143.269Z" fill="#202020"/>
<path d="M103.858 140.14L103.61 140.098C103.659 140.116 103.737 140.128 103.858 140.14Z" fill="#202020"/>
<path d="M103.822 139.331C103.761 139.524 103.278 139.796 103.423 140.074L103.616 140.104C103.254 139.965 104.233 139.53 103.822 139.331Z" fill="#202020"/>
<path d="M107.004 136.094L106.781 136.759C107.047 136.65 107.409 136.511 107.457 136.819C108.279 136.004 106.866 136.97 107.004 136.088V136.094Z" fill="#202020"/>
<path d="M107.469 134.011C107.578 134.379 107.85 134.023 108.001 134.047C107.771 133.805 107.711 133.751 107.469 134.011Z" fill="#202020"/>
<path d="M107.053 118.635L107.669 118.586C107.542 118.308 107.433 118.616 107.053 118.635Z" fill="#202020"/>
<path d="M103.417 116.315L103.097 116.654L103.677 116.672L103.417 116.315Z" fill="#202020"/>
<path d="M107.403 113.779L107.512 113.882L107.204 113.465L107.403 113.779Z" fill="#202020"/>
<path d="M103.961 88.8486L103.218 89.0238C103.375 89.1989 104.232 89.1385 103.961 88.8486Z" fill="#202020"/>
<path d="M101.962 78.1772C102.33 78.0443 102.572 77.7423 102.191 77.5732C102.149 77.8088 101.853 78.0564 101.962 78.1772Z" fill="#202020"/>
<path d="M103.188 45.3715L103.441 45.5949L103.23 45.1782L103.188 45.3715Z" fill="#202020"/>
<path d="M127.188 134.844C127.393 134.904 127.87 134.868 127.773 134.705L126.97 134.59L127.188 134.85V134.844Z" fill="#202020"/>
<path d="M128.661 133.721C128.275 133.528 127.592 133.304 126.855 133.437C127.629 133.624 127.302 133.673 128.22 133.878C128.317 134.047 127.967 134.168 127.671 134.144C127.876 134.204 127.496 134.403 128.003 134.494C128.619 134.277 128.643 133.999 128.13 133.715C128.305 133.655 128.516 133.715 128.661 133.727V133.721Z" fill="#202020"/>
<path d="M129.277 117.312L129.187 117.421C129.235 117.391 129.265 117.348 129.277 117.312Z" fill="#202020"/>
<path d="M129.102 107.178C129.126 107.257 129.205 107.281 129.277 107.281C129.223 107.215 129.168 107.154 129.102 107.178Z" fill="#202020"/>
<path d="M129.887 105.408C129.863 105.444 129.857 105.481 129.839 105.511C129.911 105.469 129.948 105.426 129.887 105.408Z" fill="#202020"/>
<path d="M129.277 117.312L129.513 117.028C129.253 117.028 129.326 117.179 129.277 117.312Z" fill="#202020"/>
<path d="M126.705 131.498C126.747 131.552 126.819 131.601 126.916 131.643C126.88 131.595 126.85 131.552 126.831 131.51C126.789 131.51 126.753 131.51 126.705 131.504V131.498Z" fill="#202020"/>
<path d="M130.177 121.751V121.836C130.274 121.854 130.388 121.872 130.509 121.89L130.177 121.757V121.751Z" fill="#202020"/>
<path d="M130.461 125.187C130.485 125.109 129.809 125.109 129.513 125.091C129.797 125.121 129.929 125.175 129.984 125.242C130.111 125.242 130.268 125.224 130.461 125.187Z" fill="#202020"/>
<path d="M129.44 130.683L129.537 130.78C129.537 130.78 129.476 130.713 129.44 130.683Z" fill="#202020"/>
<path d="M130.189 119.281C130.292 119.269 130.376 119.251 130.431 119.239C130.346 119.239 130.268 119.263 130.189 119.281Z" fill="#202020"/>
<path d="M122.012 23.6419C122.06 23.6419 122.09 23.6419 122.133 23.6419C122.066 23.6238 122.018 23.6178 122.012 23.6419Z" fill="#202020"/>
<path d="M125.394 19.6924L125.43 19.7467C125.557 19.7467 125.684 19.7528 125.811 19.7588L125.394 19.6924Z" fill="#202020"/>
<path d="M130.594 102.22C130.594 102.22 130.588 102.226 130.582 102.232C130.66 102.31 130.648 102.262 130.594 102.22Z" fill="#202020"/>
<path d="M129.537 73.0075C128.975 73.4122 128.697 72.5485 128.087 73.1344C128.347 73.0558 129.193 73.4786 129.537 73.0075Z" fill="#202020"/>
<path d="M126.795 131.414C126.789 131.365 126.777 131.323 126.783 131.275C126.765 131.341 126.765 131.384 126.795 131.414Z" fill="#202020"/>
<path d="M128.088 73.1284L128.033 73.1888C128.057 73.1647 128.075 73.1526 128.094 73.1284H128.088Z" fill="#202020"/>
<path d="M129.948 95.0327C129.827 95.0508 129.736 95.081 129.652 95.1112C129.724 95.1112 129.809 95.0871 129.948 95.0327Z" fill="#202020"/>
<path d="M129.144 100.438L129.229 100.299C129.168 100.354 129.15 100.396 129.144 100.438Z" fill="#202020"/>
<path d="M128.957 92.2548C129.012 92.1823 129.102 92.1582 129.012 92.0615C128.975 92.0736 128.951 92.0796 128.927 92.0917C129.018 92.128 129.066 92.1763 128.957 92.2548Z" fill="#202020"/>
<path d="M128.951 89.332C128.897 89.3501 128.861 89.3683 128.812 89.3864C128.824 89.4166 128.836 89.4468 128.848 89.477L128.951 89.332Z" fill="#202020"/>
<path d="M122.223 32.5443C122.417 32.4839 122.628 32.4476 122.833 32.4174C122.35 32.4537 122.187 32.0188 122.223 32.5443Z" fill="#202020"/>
<path d="M127.085 131.492C126.916 131.48 126.825 131.456 126.789 131.414C126.795 131.45 126.813 131.48 126.825 131.51C126.928 131.516 127.025 131.516 127.079 131.498L127.085 131.492Z" fill="#202020"/>
<path d="M123.6 92.1583L123.697 91.6812C123.631 91.814 123.6 91.9892 123.6 92.1583Z" fill="#202020"/>
<path d="M122.175 53.6995L122.09 53.5908C122.078 53.6331 122.09 53.6693 122.175 53.6995Z" fill="#202020"/>
<path d="M123.594 90.2923C123.836 90.2077 123.975 90.1231 124.065 90.0265C124.011 90.0084 123.969 89.9842 123.89 89.9722L123.594 90.2923Z" fill="#202020"/>
<path d="M121.275 29.3248C121.251 29.7657 122.145 29.5483 122.658 29.651C122.906 30.1824 122 29.8865 121.541 30.0616C121.77 30.3938 122.586 30.6656 122.549 30.9071C122.404 30.9253 122.35 30.9675 122.163 30.9071C122.87 31.2695 122.181 31.9459 123.063 32.3687C122.984 32.3989 122.906 32.4109 122.839 32.417C123.286 32.3566 123.739 32.3566 124.065 32.3747C124.077 32.574 124.621 32.7552 124.041 32.8216C124.059 32.7008 123.824 32.6827 123.643 32.6283L123.89 32.8397C123.051 33.0149 123.606 32.5498 122.984 32.5378C123.25 32.9484 123.938 33.4376 123.697 33.7456C122.876 33.8 123.431 33.0088 122.694 33.4135L123.014 32.9364C121.716 33.2866 123.111 32.6465 121.722 32.9605C121.474 33.5946 122.127 33.6792 121.879 34.3073C122.332 34.4583 122.555 34.271 123.008 34.422C123.812 35.334 120.937 35.0984 122.018 35.7809C122.562 35.9621 123.6 36.0466 123.045 36.5056L122.121 36.3305C122.018 36.9465 123.449 36.7049 122.815 37.339C122.453 37.2182 122.513 36.8498 122.404 36.9404C121.668 37.3451 122.924 37.2424 122.918 37.5625L122.096 37.6168C122.217 38.2751 122.797 39.0059 122.936 39.7366C122.694 39.6944 122.435 39.5675 122.181 39.7366C122.58 40.6606 122.054 41.6934 121.559 42.5751L122.266 42.9194C122.26 42.9979 121.945 43.0643 121.807 42.9737C121.535 43.3179 122.254 42.9979 122.531 43.167C122.58 43.3663 122.121 43.4206 121.909 43.2938C122.507 43.9098 123.19 45.0392 122.429 45.6793L122.217 45.5525C121.927 46.0538 123.667 46.1262 123.008 46.5852L122.882 46.4946C122.568 47.5817 123.22 48.7775 122.151 49.6109C123.171 49.7619 121.698 50.692 123.123 50.7524C122.423 51.3804 122.169 51.1993 121.698 52.081C121.637 52.3165 122.592 52.4192 122.743 52.7091L122 52.7272L122.785 53.1077L121.897 53.3311L122.09 53.6029C122.133 53.4942 122.423 53.3674 122.634 53.3795C122.978 53.7962 122.133 54.4182 121.752 54.4363L122.398 55.4268C122.096 55.4087 121.994 55.2456 121.801 55.1127C122.568 55.6321 121.015 55.2275 121.722 55.7046C121.891 55.6321 122.169 55.7288 122.32 55.7408C121.879 55.9945 121.885 56.5561 122.084 56.9608L121.571 56.8943C121.456 57.6432 121.855 58.4646 121.879 59.298C122.109 58.99 122.996 59.0262 123.093 59.2678L122.314 59.3946C122.803 59.5335 122.598 59.1289 123.208 59.4309C123.129 59.7449 122.32 59.6724 122.06 59.5033L122.344 59.8717C122.109 59.9019 121.982 59.8174 121.68 59.8053C122.175 59.9442 120.913 60.4938 121.77 60.687L121.535 60.7172C121.571 61.599 121.867 62.0157 121.97 62.7283C122.646 62.6861 122.519 62.9759 123.087 63.139C122.93 63.6705 122.453 64.3106 122.592 64.9206C122.984 65.3132 123.178 64.975 123.6 65.1139C122.99 65.2286 123.129 65.8265 122.646 65.5729C122.851 66.2915 122.9 66.4969 123.534 67.3303C123.769 67.1914 123.86 67.0646 124.077 67.0887C124.204 67.2397 123.878 67.5054 123.582 67.5236L123.516 67.4873C124.591 68.363 122.103 70.0963 123.498 70.6821L123.425 70.6459L124.21 71.3585C124.162 71.745 123.715 71.2015 123.377 71.5337C124.524 72.2644 123.419 72.9227 124.186 73.5387C122.447 74.2755 124.506 75.4532 123.377 76.2443L123.806 76.1839C124.234 76.347 123.57 76.4195 123.473 76.5523C123.806 76.5221 123.854 76.3349 124.089 76.4436C124.663 77.9293 123.479 79.8196 123.099 81.5589C122.984 82.1991 125.321 81.9394 124.295 82.7426L123.498 82.5071C124.452 83.8116 123.461 85.1584 124.271 86.4266C124.089 86.3481 123.848 86.3481 123.848 86.2213C123.268 86.487 123.818 87.2118 124.295 87.2178C124.24 87.4171 123.866 87.2601 123.624 87.3808C123.28 87.6466 124.361 88.0573 123.787 88.1962C123.691 88.2203 123.6 88.1177 123.552 88.0693C123.83 88.2445 123.479 88.8846 124.15 88.7216C123.83 89.1987 124.446 89.6335 124.047 90.014C124.796 90.2616 123.685 90.8293 124.742 90.9078C123.649 90.8716 123.86 91.7412 124.379 92.0492C124.047 91.9466 124.041 92.315 123.582 92.2002C123.6 92.5505 123.806 92.8646 124.367 92.8042C123.069 93.4564 125.424 94.0785 123.757 94.4589C124.367 95.4796 124.778 96.4217 125.062 97.3397C123.969 97.3397 124.929 96.3191 123.781 96.3915C124.246 97.2612 125.207 97.7383 124.971 98.614C124.832 98.8435 124.494 98.4992 124.307 98.4328C124.784 99.2964 124.265 100.13 124.893 100.885C124.79 100.885 124.675 100.806 124.591 100.734C124.633 100.885 124.446 101.096 124.941 101.06L124.802 100.915C125.509 100.643 126.33 101.459 126.711 101.471C125.279 101.271 126.384 102.25 124.579 101.917C124.675 102.014 124.917 102.129 125.249 102.093C125.158 102.244 124.965 102.304 124.585 102.171C124.875 102.709 125.394 102.485 125.412 102.986C125.17 102.999 125.074 102.902 124.79 102.86C125.267 103.089 125.75 103.319 125.569 103.747C125.424 103.729 125.237 103.79 125.237 103.663C125.346 104.382 126.541 104.822 126.131 105.632C125.08 105.457 125.805 105.916 124.905 106.006L125.195 106.417L125.623 106.224C125.623 106.598 126.306 106.888 126.028 107.22L125.642 106.966L125.853 107.649L126.173 107.238C126.656 107.588 127.308 107.135 127.085 107.637C126.988 107.54 127.097 108.005 126.578 108.229C126.874 108.392 127.188 108.567 126.982 108.851C126.698 108.941 125.986 108.851 125.793 108.911C126.554 109.044 126.052 109.763 126.868 109.944C126.674 109.877 126.203 109.901 126.107 109.932L126.729 110.046C126.541 110.228 126.451 110.258 126.07 110.258C125.992 110.783 127.2 110.022 126.747 110.668C126.692 110.626 126.602 110.65 126.505 110.56C126.288 111.188 126.964 111.719 126.698 112.305C125.805 112.529 126.445 111.828 125.696 112.064C125.913 112.867 126.886 113.682 126.723 114.479L126.813 114.328C128.1 114.359 126.215 114.95 126.843 115.313C126.741 115.222 126.125 115.228 126.27 115.246C126.101 115.796 126.65 116.327 127.103 117.118L126.765 117.04C126.493 117.372 126.644 117.885 126.517 118.236C126.849 118.32 126.807 118.52 127.278 118.369C125.466 119.528 128.395 120.325 126.886 121.352C126.874 121.243 126.584 121.098 126.59 121.189L126.934 121.968C127.49 121.877 127.266 121.847 127.689 121.654C128.027 121.739 128.293 121.95 128.299 122.149C127.912 121.811 127.405 122.198 127.103 122.367C127.272 122.33 127.465 122.373 127.635 122.355C126.662 122.82 128.758 122.367 128.118 122.971L127.822 122.952C127.985 123.158 128.377 123.339 128.305 123.568C127.665 123.695 127.991 123.357 127.459 123.369C127.514 123.689 128.716 123.949 128.081 124.269C127.894 124.142 127.888 123.943 127.701 123.816C126.958 124.166 127.151 124.197 127.043 124.438L127.061 124.414L126.741 124.976L126.94 124.831C128.637 125.163 127.284 125.64 128.408 126.135C127.345 125.646 127.798 126.075 127.067 126.063C126.868 126.208 126.65 126.431 126.445 126.377C127.049 126.612 125.998 126.824 126.874 127.15C126.638 127.174 126.862 127.422 126.264 127.385C126.457 127.711 126.668 127.295 126.964 127.313C127.786 127.802 126.028 128.551 127.157 129.251C127.629 129.874 128.42 129.976 128.83 130.562C128.456 130.773 127.967 130.417 127.967 130.417C127.628 130.749 127.695 130.991 127.967 131.287C127.761 131.226 127.586 131.293 127.327 131.395C127.393 131.637 128.19 131.546 127.846 131.873C127.58 131.824 127.157 131.758 126.892 131.643C127.115 131.927 127.562 132.205 127.773 132.495C127.363 132.579 127.151 132.325 126.88 132.223C127.067 132.555 127.26 133.08 127.906 133.177L128.136 132.96C128.166 133.08 127.58 133.026 127.459 132.941C126.946 132.664 127.683 132.525 127.918 132.507L128.069 132.718C129.452 132.483 127.84 131.867 127.912 131.444L128.921 131.607L128.075 131.184C128.335 131.087 128.897 131.009 129.048 131.22C129.537 130.9 128.685 130.955 129.235 130.677C129.32 130.647 129.368 130.659 129.41 130.683L129.102 130.387C129.313 130.441 129.809 130.32 129.67 130.508C130.237 129.952 128.897 129.656 129.658 129.433L129.718 129.475C129.356 128.732 128.981 129.421 128.094 128.883L129.899 128.454L129.162 128.406C129.187 128.327 129.235 128.17 129.531 128.195C129.018 127.923 129.211 128.255 128.728 128.104C129.386 127.711 128.383 127.089 129.555 126.969C128.987 126.854 129.132 127.337 128.734 126.957C129.996 126.8 128.504 126.504 129.066 126.147C129.724 126.226 129.392 126.564 129.96 126.202C128.848 126.039 130.171 125.531 129.948 125.253C129.072 125.278 129.555 124.643 129.241 124.178C129.537 124.197 129.682 123.254 129.972 122.789H130.117C129.229 122.753 129.368 122.282 129.169 121.956C129.7 121.944 129.911 121.992 130.159 122.161L130.141 121.847C129.851 121.787 129.7 121.696 129.585 121.497L130.25 121.539C130.195 121.117 129.422 120.736 129.839 120.168C129.217 120.168 128.142 120.694 127.701 120.144C128.033 120.102 128.601 120.054 128.746 120.192C128.697 120.144 128.456 120.035 128.595 119.927L129.169 120.126C129.404 119.866 128.691 120.023 128.734 119.824C129.211 119.8 129.066 119.661 129.446 119.667C129.495 119.715 129.259 119.848 129.446 119.915C129.519 119.685 129.785 119.401 130.141 119.293C129.869 119.329 129.501 119.329 129.428 119.172C129.368 118.755 129.996 118.997 130.225 118.737C129.887 118.652 130.219 118.369 129.507 118.399C129.507 118.278 129.833 118.236 130.026 118.175C129.7 117.976 129.875 117.167 129.132 117.457L129.084 117.517C129.084 117.517 129.066 117.493 129.048 117.481C128.299 116.81 129.362 115.977 129.018 115.295L129.253 115.283C128.957 114.878 129.036 114.358 128.504 114.087C128.498 113.96 128.921 113.767 129.205 113.803C129.005 113.495 128.734 113.471 129.102 112.982C129.537 113.277 129.464 112.849 129.428 113.296C129.609 112.867 129.984 112.746 129.307 112.341C129.929 112.456 130.056 111.979 129.863 111.792L129.446 112.112C129.344 111.894 129.386 111.695 129.428 111.496L130.237 111.556C131.162 110.644 128.48 110.119 130.074 109.37C129.501 109.177 129.706 109.859 129.042 109.696C129.126 109.298 130.256 108.82 130.25 108.694C130.66 108.132 129.048 108.259 129.32 107.679C129.036 107.77 128.275 107.878 127.985 107.474C128.069 107.075 129.156 106.924 129.404 107.154C129.434 107.244 129.344 107.299 129.247 107.299C129.356 107.419 129.489 107.576 129.791 107.407L129.501 107.371C129.785 107.16 129.718 106.622 130.195 106.725C129.905 106.447 129.718 106.622 129.579 106.852C129.966 106.326 129.549 106.067 129.797 105.529C129.646 105.62 129.313 105.716 129.307 105.632C129.621 104.853 128.746 105.324 128.595 104.816C129.018 104.502 129.64 104.865 129.253 104.369C129.531 104.037 130.008 104.261 130.25 104.376C129.676 103.935 130.57 103.476 130.654 103.204L130.896 103.439C130.751 103.301 130.751 103.18 130.745 103.053L130.177 103.222C130.268 103.071 130.268 102.95 130.503 102.938C130.123 102.805 129.555 103.101 129.03 102.823C129.313 102.618 128.685 102.244 129.446 102.141C129.217 102.763 130.207 102.038 130.352 102.552C130.256 102.455 130.256 102.334 130.352 102.183C130.437 102.159 130.509 102.195 130.558 102.232C131.21 101.616 129.688 102.002 129.676 101.398C130.105 101.459 130.485 101.223 130.388 101.126C130.388 101.368 129.676 101.271 129.344 101.066C129.664 100.661 129.078 100.655 129.108 100.45L128.963 100.692C128.534 100.631 128.583 100.432 128.432 100.166C128.764 100.13 128.673 100.402 128.812 100.299C128.045 100.027 129.561 99.5863 129.042 99.1877C129.326 98.9824 129.845 99.1394 130.038 98.9643C129.464 98.5174 130.612 98.4388 130.135 97.9617C129.561 98.1188 129.706 98.1429 129.132 97.8108L129.561 98.6079L128.71 98.1127C128.71 98.3603 129.09 98.62 128.993 98.765C128.516 98.5355 128.661 98.5536 128.184 98.6865C129.036 98.3241 127.659 98.0342 128.232 97.6296L129.658 97.5994C130.274 97.0015 128.891 96.5848 129.241 95.8238L128.999 96.0714C128.432 95.9809 128.909 95.6064 128.673 95.3648C129.15 95.3769 129.32 95.2199 129.615 95.1112C129.259 95.1293 129.634 94.5616 128.685 94.5072L129.307 94.163C129.561 93.553 127.943 93.4866 128.1 92.8948C128.619 93.0699 128.957 92.7981 129.332 93.1846C129.332 92.9914 129.422 92.8162 129.09 92.8102C129.386 92.6955 128.444 92.2727 128.897 92.0915C128.685 92.007 128.184 91.9828 128.226 91.7654C128.323 91.7412 128.462 91.7654 128.462 91.7654C128.226 91.7654 128.136 91.4212 127.61 91.6144C129.096 91.0105 127.502 89.9174 128.782 89.3859C128.625 88.9571 128.468 88.4377 128.438 88.0452C128.583 88.0693 128.673 88.0452 128.625 88.1237C129.072 87.5862 127.254 87.7855 127.749 87.1755C128.522 86.8675 128.166 87.5016 128.456 87.3084C130.026 87.2299 128.245 86.5655 129.156 86.1609L129.247 86.2636C129.779 85.9495 128.655 85.4905 128.764 84.9772C128.764 84.9772 128.903 85.0014 128.999 84.9772C128.202 84.6209 127.937 83.9505 127.713 83.4553C128.329 83.6123 128.039 83.6848 128.661 83.5942C128.571 83.3707 127.659 83.6546 127.484 83.2077C127.822 83.0627 128.112 82.7487 128.782 82.7125L128.818 83.1292C129.682 82.9238 128.788 82.5856 128.939 82.3682L129.313 82.3984C129.193 81.7582 128.245 81.7401 128.311 81.0516L128.027 81.1181C127.085 80.7316 128.559 80.804 127.858 80.4236L128.812 80.3209C128.583 80.0733 127.894 79.4391 127.713 78.9922C128.42 79.2519 128.782 79.7773 129.199 80.1035C129.205 79.8559 129.132 79.264 128.661 79.1311C128.752 79.2338 128.987 79.3606 128.842 79.4573C128.094 79.1493 127.725 78.7446 127.743 78.2554C129.591 78.3762 128.214 76.9268 129.621 76.5161C128.909 75.6162 129.809 74.656 129.591 73.587C128.196 74.1125 129.519 73.279 128.057 73.5085C127.937 73.279 127.949 73.1824 128.039 73.1522L128.83 72.3127C129.235 72.0832 129.181 72.5 129.507 72.4396C129.555 71.89 130.099 72.1376 130.443 71.7269C129.929 71.8658 129.67 71.6424 129.827 71.3102L129.211 71.8296C128.335 71.1955 130.352 71.0143 129.47 70.3802L129.966 70.5493C129.64 70.205 129.76 69.1481 128.534 68.967C128.691 68.8764 129.078 68.7254 129.211 68.8703C129.247 67.9584 127.653 67.1008 128.275 66.3217L128.643 66.3338C128.516 66.1889 127.93 66.1526 128.257 65.899C128.408 65.8869 128.625 65.9111 128.631 65.8325C128.492 65.7661 127.943 65.5004 128.124 65.2588L128.553 65.3796C128.903 64.4858 127.399 64.2382 127.067 63.5557C128.124 63.4349 128.395 62.7525 128.54 62.4264H128.691C128.74 61.4722 127.695 60.9528 127.242 60.0046C128.377 59.3825 127.653 58.0358 128.281 57.0876C128.094 57.2325 127.453 57.0876 127.339 56.9245C127.55 56.7011 126.584 56.3387 127.562 56.3508L127.544 56.4293C128.498 56.2421 128.232 55.8012 128.251 55.4509L126.976 55.4208C128.818 54.4726 126.252 53.0292 127.912 52.5098C127.592 52.2924 127.592 52.0206 127.272 51.8032H127.955C128.124 51.1932 128.202 50.8913 128.039 50.1363L128.528 50.2873C128.571 49.8585 126.554 49.7559 126.517 49.3633L127.538 49.2425C127.52 48.4936 128.414 47.7448 127.496 47.0019C127.647 47.014 127.943 47.0382 127.979 47.159C128.009 46.8087 128.673 45.8062 127.272 45.9269C128.184 45.9269 127.363 45.1599 126.964 44.7493L127.635 44.8157C126.777 44.4715 126.541 44.4533 126.306 43.9762C126.396 43.8615 126.843 43.8796 126.674 44.0306C127.031 43.6562 126.04 43.7286 126.403 43.2757L126.831 43.4508C126.886 43.0643 126.656 43.0945 126.155 42.8771C125.889 42.6295 126.336 42.1463 126.94 42.092C126.572 42.0376 126.076 41.8202 126.252 41.5907C126.481 41.5605 126.626 41.6451 126.692 41.6873C127.157 41.0472 125.919 40.715 126.59 40.2802C126.813 40.2741 126.922 40.2439 126.994 40.2077C126.97 40.721 126.928 41.1378 126.88 41.0955C127.502 41.1015 127.616 40.6908 128.468 41.029C128.003 40.6908 126.994 40.105 127.29 39.7064C127.351 39.6883 127.411 39.6702 127.508 39.6581L127.574 39.7004C127.635 39.6098 127.58 39.5253 127.478 39.4407C127.58 39.3139 127.659 39.2293 127.671 39.1085C128.184 39.0663 127.955 38.6375 127.985 38.4321C127.302 38.4382 127.417 38.1664 126.855 38.414C126.904 38.3838 126.934 38.4563 126.964 38.5952C126.982 38.6254 126.994 38.6616 127.031 38.6858C127.012 38.6858 126.994 38.6737 126.97 38.6737C126.988 38.8126 127 38.9878 127.006 39.187C126.662 39.0179 126.378 38.8428 126.759 38.6194C126.324 38.5046 125.877 38.3838 125.666 38.3113C126.614 38.0396 127.139 37.5021 127.725 37.4356C127.357 36.7955 127.496 35.9379 126.227 35.5212C126.064 35.34 126.596 35.3219 126.795 35.2555C126.922 35.3642 126.898 35.4849 127.085 35.5453C126.765 35.183 126.976 34.4764 126.088 34.3737C126.499 33.9268 126.904 34.6455 126.771 34.0174L127.043 34.108C128.486 32.9062 124.802 32.0727 126.65 30.738C126.535 30.8286 126.481 30.8769 126.336 30.8951C127.17 29.355 125.629 27.6821 126.922 26.1663C127.188 25.7314 126.614 25.6771 126.185 25.4053L126.916 25.3208L126.082 24.8557C125.472 24.2035 127.882 23.7505 126.723 22.9232L126.233 23.0258C126.33 22.7299 125.95 22.0958 126.517 22.1441C126.427 22.1139 126.004 22.0475 126.264 21.9327H126.644L125.992 21.2019C126.27 20.6463 127.508 21.2925 127.586 20.4772C127.441 20.1753 126.475 19.6136 126.221 19.7223C126.203 19.8431 125.98 20.0364 125.599 20.0424L125.4 19.7646C124.277 19.7163 123.123 19.5049 122.338 20.1753L123.027 20.6463L122.483 20.7973L122.453 20.3987C121.939 20.6222 122.392 20.7671 122.706 20.9241C122.417 20.9604 122.211 21.0268 122.103 21.1174L123.178 21.5824C122.737 21.6368 122.302 21.371 122.06 21.6791C122.555 21.8965 123.045 21.4737 123.377 21.8361C122.863 22.0595 122.447 21.9931 122.882 22.2588C122.592 22.2951 122.411 22.2347 122.278 22.132C122.622 22.3675 122.423 22.7541 123.014 22.8809C122.38 23.1104 123.171 23.6781 122.109 23.6479C122.362 23.7264 122.942 24.0706 122.984 24.288C121.71 23.8834 122.906 25.0973 121.535 24.9826C122.676 25.2845 122.03 26.0455 122.664 26.5709C122.574 26.5407 122.392 26.4803 122.447 26.438C122.35 26.7279 122 26.8064 121.782 26.9937C122.731 27.042 122.942 27.501 123.522 27.7546C122.604 28.0989 122.417 27.5191 121.535 27.6217C122.302 27.6157 122.29 28.2559 122.93 28.1411C122.362 28.4069 122.652 28.3706 121.867 28.5035C123.051 28.5699 122.066 28.7632 122.785 28.9987C122.193 29.3852 121.674 29.0833 122.03 29.5241C121.662 29.7234 121.251 29.3309 121.251 29.3309L121.275 29.3248ZM123.159 39.7427H123.147C123.135 39.6521 123.117 39.5736 123.111 39.5253C123.123 39.5675 123.135 39.634 123.159 39.7427ZM123.159 40.6184C123.19 40.5097 123.196 40.3768 123.19 40.2379C123.425 40.2077 123.667 40.2439 123.655 40.3345C123.498 40.2862 123.359 40.4915 123.159 40.6184ZM127.888 38.8368C127.985 38.9757 127.846 39.0179 127.707 39.0361C127.695 38.9696 127.677 38.8972 127.629 38.7945C127.604 38.7945 127.574 38.7824 127.544 38.7764C127.671 38.7885 127.798 38.8066 127.882 38.8368H127.888Z" fill="#202020"/>
<path d="M127 38.5711C127 38.5711 126.958 38.5409 126.952 38.5107C126.892 38.5409 126.843 38.5651 126.801 38.5893C126.873 38.6074 126.946 38.6255 127.012 38.6436C127.012 38.6195 127.006 38.5953 127 38.5711Z" fill="#202020"/>
<path d="M129.175 117.445L129.187 117.427C129.187 117.427 129.132 117.457 129.09 117.469C129.12 117.457 129.144 117.451 129.169 117.445H129.175Z" fill="#202020"/>
<path d="M121.825 52.7274L121.994 52.7214L121.843 52.6489L121.825 52.7274Z" fill="#202020"/>
<path d="M127.115 122.367C127.055 122.379 126.994 122.403 126.946 122.439C126.988 122.439 127.049 122.403 127.115 122.367Z" fill="#202020"/>
<path d="M127.061 124.444L126.831 124.746C126.964 124.613 127.025 124.517 127.061 124.444Z" fill="#202020"/>
<path d="M126.795 126.045C126.916 126.063 127.006 126.063 127.085 126.063L126.789 126.045H126.795Z" fill="#202020"/>
<path d="M124.609 100.734C124.609 100.734 124.597 100.692 124.573 100.674C124.434 100.535 124.488 100.631 124.609 100.734Z" fill="#202020"/>
<path d="M126.578 108.229C126.451 108.156 126.324 108.084 126.246 108.005C126.203 108.144 126.197 108.247 126.578 108.229Z" fill="#202020"/>
<path d="M123.588 92.2067C123.588 92.2067 123.588 92.2067 123.6 92.2067C123.6 92.1886 123.6 92.1705 123.6 92.1523L123.588 92.2067Z" fill="#202020"/>
<path d="M126.233 107.655C126.107 107.8 126.143 107.909 126.239 108.006C126.276 107.891 126.342 107.758 126.233 107.655Z" fill="#202020"/>
<path d="M126.662 132.912L126.632 132.99C126.674 132.99 126.711 132.99 126.741 132.996L126.662 132.912Z" fill="#202020"/>
<path d="M126.747 132.996L126.825 133.081C126.825 133.044 126.825 133.008 126.747 132.996Z" fill="#202020"/>
<path d="M126.994 133.256L126.819 133.081C126.819 133.141 126.795 133.219 126.994 133.256Z" fill="#202020"/>
<path d="M126.946 130.81L126.698 130.792C126.753 130.804 126.831 130.81 126.946 130.81Z" fill="#202020"/>
<path d="M126.862 130.176C126.807 130.327 126.342 130.568 126.505 130.774L126.704 130.792C126.336 130.701 127.284 130.309 126.868 130.176H126.862Z" fill="#202020"/>
<path d="M129.821 127.416L129.64 127.966C129.899 127.863 130.25 127.724 130.316 127.966C131.077 127.259 129.736 128.123 129.815 127.416H129.821Z" fill="#202020"/>
<path d="M130.141 125.725C130.274 126.009 130.521 125.707 130.672 125.713C130.425 125.538 130.364 125.495 130.141 125.725Z" fill="#202020"/>
<path d="M129.489 113.652L130.105 113.64C130.002 113.423 129.863 113.652 129.489 113.652Z" fill="#202020"/>
<path d="M126.155 111.544L125.787 111.786L126.36 111.852L126.155 111.544Z" fill="#202020"/>
<path d="M130.467 109.92L130.564 110.011L130.316 109.654L130.467 109.92Z" fill="#202020"/>
<path d="M129.549 89.8511L128.788 89.9175C128.927 90.0685 129.779 90.0987 129.549 89.8511Z" fill="#202020"/>
<path d="M128.782 81.1181C129.162 81.0275 129.41 80.7859 129.036 80.6289C128.981 80.8222 128.685 81.0154 128.782 81.1181Z" fill="#202020"/>
<path d="M127.961 54.95L128.22 55.1191L128.003 54.793L127.961 54.95Z" fill="#202020"/>
</svg>
