<svg width="40" height="40" viewBox="0 0 40 40" fill="none" xmlns="http://www.w3.org/2000/svg">
<g clip-path="url(#clip0_41_33930)">
<path d="M22.2098 20.0003L39.5424 2.66768C40.1526 2.05745 40.1526 1.06807 39.5424 0.457919C38.9321 -0.152236 37.9428 -0.152314 37.3326 0.457919L20 17.7905L2.66744 0.457919C2.0572 -0.152314 1.06783 -0.152314 0.457675 0.457919C-0.15248 1.06815 -0.152558 2.05753 0.457675 2.66768L17.7902 20.0002L0.457675 37.3328C-0.152558 37.9431 -0.152558 38.9325 0.457675 39.5426C0.762752 39.8477 1.16267 40.0002 1.56259 40.0002C1.96252 40.0002 2.36236 39.8477 2.66751 39.5426L20 22.2101L37.3325 39.5426C37.6376 39.8477 38.0375 40.0002 38.4374 40.0002C38.8374 40.0002 39.2372 39.8477 39.5424 39.5426C40.1526 38.9324 40.1526 37.943 39.5424 37.3328L22.2098 20.0003Z" fill="black"/>
</g>
<defs>
<clipPath id="clip0_41_33930">
<rect width="40" height="40" fill="white"/>
</clipPath>
</defs>
</svg>
