<svg width="226" height="115" viewBox="0 0 226 115" fill="none" xmlns="http://www.w3.org/2000/svg">
<path d="M5.056 107.233V105.961C10.576 101.137 13.096 97.6094 13.096 94.6094C13.096 92.5934 12.064 91.1054 9.88 91.1054C8.44 91.1054 7.192 91.9934 6.208 93.1454L4.936 91.9214C6.376 90.3614 7.912 89.3294 10.144 89.3294C13.288 89.3294 15.256 91.3694 15.256 94.5134C15.256 98.0414 12.496 101.617 8.344 105.529C9.28 105.433 10.336 105.361 11.224 105.361H16.096V107.233H5.056ZM28.7845 107.569C25.4245 107.569 23.2885 104.521 23.2885 98.3774C23.2885 92.2814 25.4245 89.3294 28.7845 89.3294C32.0965 89.3294 34.2325 92.2814 34.2325 98.3774C34.2325 104.521 32.0965 107.569 28.7845 107.569ZM28.7845 105.793C30.7765 105.793 32.1205 103.561 32.1205 98.3774C32.1205 93.2654 30.7765 91.0814 28.7845 91.0814C26.7685 91.0814 25.4005 93.2654 25.4005 98.3774C25.4005 103.561 26.7685 105.793 28.7845 105.793ZM41.281 107.233V105.961C46.801 101.137 49.321 97.6094 49.321 94.6094C49.321 92.5934 48.289 91.1054 46.105 91.1054C44.665 91.1054 43.417 91.9934 42.433 93.1454L41.161 91.9214C42.601 90.3614 44.137 89.3294 46.369 89.3294C49.513 89.3294 51.481 91.3694 51.481 94.5134C51.481 98.0414 48.721 101.617 44.569 105.529C45.505 105.433 46.561 105.361 47.449 105.361H52.321V107.233H41.281ZM66.4735 107.233V95.2574C66.4735 94.3694 66.5455 92.9534 66.6175 92.0414H66.4975C66.0655 92.9054 65.5855 93.7934 65.1055 94.6574L61.0975 100.657H70.8895V102.385H58.7935V100.945L66.1135 89.6414H68.5375V107.233H66.4735ZM88.9212 91.6094H108.361V93.4094H88.9212V91.6094ZM87.8892 106.345H109.321V108.145H87.8892V106.345ZM92.2572 95.1374L94.0332 94.7054C95.0172 97.9454 96.0252 102.049 96.4332 104.833L94.5372 105.289C94.1772 102.553 93.1692 98.3294 92.2572 95.1374ZM103.201 94.7294L105.217 95.0654C104.137 99.0254 102.529 104.065 101.209 107.113L99.4332 106.729C100.801 103.657 102.361 98.3774 103.201 94.7294ZM96.8892 87.4094L98.6172 86.9534C99.1212 88.1774 99.6492 89.7374 99.8892 90.7934L98.0412 91.3454C97.8492 90.2894 97.3452 88.6574 96.8892 87.4094ZM116.521 100.177H138.313V101.737H116.521V100.177ZM133.369 98.4254L135.121 98.9054C133.177 105.865 128.233 108.385 117.985 109.129C117.865 108.601 117.553 107.929 117.265 107.497C127.105 106.969 131.617 104.713 133.369 98.4254ZM116.785 92.0174H138.001V93.5774H116.785V92.0174ZM126.457 88.8014H128.257V98.3534H126.457V88.8014ZM125.569 92.3774L127.033 93.0254C124.825 95.6894 120.889 97.9934 117.361 99.1214C117.121 98.6894 116.617 98.0414 116.257 97.7054C119.713 96.7454 123.601 94.6814 125.569 92.3774ZM134.257 87.1214L135.577 88.4174C131.329 89.3774 124.465 89.8574 118.849 89.9774C118.801 89.5694 118.633 88.9454 118.465 88.5614C123.961 88.4174 130.705 87.9134 134.257 87.1214ZM120.001 104.641L121.417 103.441C127.657 104.665 134.089 106.345 138.049 107.761L136.393 109.057C132.721 107.641 126.601 105.985 120.001 104.641ZM120.001 104.641C121.729 102.841 123.961 99.9614 125.209 97.6334L127.009 98.0894C125.761 100.417 123.649 103.105 122.185 104.641H120.001ZM129.001 94.7774L129.865 93.6254C132.745 94.7294 136.657 96.4574 138.721 97.5854L137.833 98.9294C135.865 97.7774 131.953 95.9534 129.001 94.7774ZM156.745 94.3694L158.377 94.7294C157.657 97.0814 156.457 99.3374 155.161 100.801C154.849 100.537 154.129 100.105 153.745 99.8894C155.041 98.4974 156.121 96.4574 156.745 94.3694ZM156.289 96.6494H166.345V98.1854H156.289V96.6494ZM153.937 101.329H167.161V102.889H153.937V101.329ZM153.889 92.6654H167.137V94.2014H153.889V92.6654ZM159.553 97.3454H161.353V100.849C161.353 103.561 160.465 106.945 154.297 109.225C154.033 108.817 153.529 108.217 153.121 107.881C159.049 105.961 159.553 103.009 159.553 100.825V97.3454ZM151.345 92.3534H152.929V104.497H151.345V92.3534ZM149.737 87.2174L151.393 87.6734C150.169 91.8254 148.177 96.0734 145.969 98.8574C145.801 98.4494 145.321 97.4894 144.985 97.0334C146.953 94.6094 148.681 90.9134 149.737 87.2174ZM147.673 93.6494L149.353 91.9934L149.401 92.0414V109.201H147.673V93.6494ZM155.233 88.2494H163.705V89.7854H155.233V88.2494ZM163.201 88.2494H163.417L163.705 88.1534L164.953 88.3214C164.761 90.0014 164.449 91.9934 164.137 93.5294L162.457 93.3614C162.745 91.7774 163.057 89.6414 163.201 88.4654V88.2494ZM161.209 104.233L162.457 103.297C164.113 104.761 166.345 106.753 167.497 107.977L166.153 109.057C165.073 107.833 162.889 105.745 161.209 104.233ZM181.057 97.3214H195.001V98.7134H181.057V97.3214ZM180.049 100.945H195.769V102.337H180.049V100.945ZM184.393 95.5934H186.073V101.713H184.393V95.5934ZM189.817 95.5934H191.497V101.713H189.817V95.5934ZM189.193 103.345L190.393 102.529C192.193 103.369 194.209 104.497 195.361 105.385L193.777 106.225C192.745 105.313 190.945 104.185 189.193 103.345ZM185.185 102.553L186.793 103.105C185.521 104.305 183.553 105.529 181.921 106.273C181.585 105.985 180.937 105.433 180.529 105.169C182.209 104.521 184.057 103.537 185.185 102.553ZM181.585 88.0334H187.297V92.1134H181.585V90.8654H185.737V89.2574H181.585V88.0334ZM189.241 88.0574H195.073V92.1374H189.241V90.8894H193.489V89.2814H189.241V88.0574ZM188.545 88.0574H190.033V92.9534C190.033 93.6254 190.129 93.8414 190.681 93.8414C191.161 93.8414 193.441 93.8414 193.921 93.8414C194.377 93.8414 195.097 93.8174 195.505 93.7454C195.529 94.1294 195.577 94.6814 195.649 95.0414C195.289 95.1134 194.641 95.1614 193.993 95.1614C193.441 95.1614 190.993 95.1614 190.609 95.1614C188.953 95.1614 188.545 94.5614 188.545 92.9294V88.0574ZM180.913 95.7614L180.865 94.5854L181.609 94.0814L187.513 93.1454C187.441 93.5294 187.369 94.1294 187.369 94.4414C182.041 95.4014 181.321 95.5454 180.913 95.7614ZM180.913 95.7614C180.817 95.3774 180.481 94.6814 180.265 94.3214C180.553 94.1774 180.889 93.8654 180.889 92.9534V88.0334H182.353V94.4174C182.353 94.4174 180.913 95.2334 180.913 95.7614ZM174.625 88.0334L175.945 87.2174C177.049 88.3934 178.393 89.9294 179.065 90.8894L177.649 91.8734C177.025 90.8894 175.681 89.2094 174.625 88.0334ZM174.145 92.6414H178.513V94.1534H174.145V92.6414ZM178.273 103.633C179.761 106.777 182.929 107.209 187.753 107.209C190.297 107.209 193.849 107.089 196.321 106.873C196.033 107.281 195.817 108.121 195.721 108.625C193.441 108.745 190.393 108.817 187.729 108.817C182.065 108.817 178.897 108.169 177.073 104.185L178.273 103.633ZM178.249 98.6174H178.681L178.993 98.5694L179.905 98.9054C179.161 103.945 177.361 107.353 174.913 109.225C174.673 108.841 174.073 108.241 173.713 107.977C176.041 106.321 177.649 103.249 178.249 98.9294V98.6174ZM174.529 100.417V99.0494L175.393 98.6174H178.729V100.081H175.897C175.345 100.081 174.721 100.249 174.529 100.417ZM174.529 100.417C174.433 100.009 174.073 99.1694 173.881 98.8094C174.217 98.7134 174.577 98.5694 174.937 98.0894C175.561 97.4174 177.457 94.0574 178.105 92.8094V92.7374L178.609 92.5214L179.809 92.9774C178.873 94.6094 177.025 97.7774 175.873 99.2894C175.873 99.2894 174.529 99.9374 174.529 100.417ZM212.785 87.1694H214.777C214.681 91.4174 214.489 103.609 204.289 109.081C203.977 108.601 203.377 108.049 202.825 107.665C212.833 102.601 212.689 90.8654 212.785 87.1694ZM214.561 90.1214C214.777 91.8494 215.761 103.345 224.977 107.449C224.449 107.857 223.921 108.481 223.657 108.985C214.153 104.545 213.169 92.4014 212.833 90.3134L214.561 90.1214Z" fill="white" fill-opacity="0.8"/>
<g clip-path="url(#clip0_42_57253)">
<path d="M93.9303 12.6893H83.1434C82.5696 12.6893 82.0995 13.1576 82.0995 13.7429V21.1064C82.0019 27.8844 81.251 43.2152 76.5566 49.3709C76.5566 49.3709 73.5043 52.4518 75.9461 55.5327C75.9461 55.5327 78.9984 58.6137 82.6612 54.9165C82.6612 54.9165 85.103 52.4518 85.5181 46.0989L85.5059 45.988C85.5059 45.9449 85.5181 45.9017 85.5181 45.8524V46.0989C85.5181 45.5197 85.9821 45.0452 86.562 45.0452H90.5666C91.1405 45.0452 91.6105 45.5135 91.6105 46.0989V50.1657C91.6105 50.745 92.0745 51.2194 92.6544 51.2194H93.9364C94.5102 51.2194 94.9803 50.7511 94.9803 50.1657V13.7368C94.9803 13.1576 94.5163 12.6831 93.9364 12.6831L93.9303 12.6893ZM91.6044 41.8411C91.6044 42.4203 91.1405 42.8947 90.5605 42.8947H86.5559C85.9821 42.8947 85.512 42.4264 85.512 41.8411V15.8441C85.512 15.2649 85.976 14.7905 86.5559 14.7905H90.5605C91.1344 14.7905 91.6044 15.2588 91.6044 15.8441V41.8411Z" fill="white"/>
<path d="M104.168 18.919V25.0131C104.168 25.5923 104.632 26.0668 105.212 26.0668H106.652C107.226 26.0668 107.696 25.5985 107.696 25.0131V18.919C107.696 18.3398 108.16 17.8653 108.74 17.8653H114.668C115.242 17.8653 115.712 18.3337 115.712 18.919V24.9577C115.712 25.5369 116.176 26.0113 116.755 26.0113H118.141C118.715 26.0113 119.185 25.543 119.185 24.9577V18.919C119.185 18.3398 119.649 17.8653 120.229 17.8653H125.784C126.358 17.8653 126.828 17.397 126.828 16.8117C126.828 16.2263 126.364 15.758 125.784 15.758H120.229C119.655 15.758 119.185 15.2897 119.185 14.7043V10.9764C119.185 10.3972 118.721 9.9227 118.141 9.9227H116.755C116.182 9.9227 115.712 10.391 115.712 10.9764V14.7043C115.712 15.2835 115.248 15.758 114.668 15.758H108.74C108.166 15.758 107.696 15.2897 107.696 14.7043V8.67184C107.696 8.09263 107.232 7.61816 106.652 7.61816H105.212C104.638 7.61816 104.168 8.08647 104.168 8.67184V14.7105C104.168 15.2897 103.704 15.7642 103.124 15.7642H97.996C97.4222 15.7642 96.9521 16.2325 96.9521 16.8178C96.9521 17.4032 97.4161 17.8715 97.996 17.8715H103.124C103.698 17.8715 104.168 18.3398 104.168 18.9252V18.919Z" fill="white"/>
<path d="M132.212 21.2605H172.069C172.704 21.2605 173.217 20.7429 173.217 20.1021C173.217 19.4613 172.704 18.9437 172.069 18.9437H153.517C153.847 13.8848 151.21 8.30211 151.21 8.30211C148.933 3.85941 144.757 5.54776 144.757 5.54776C140.582 8.07412 145.667 11.8452 145.667 11.8452C148.451 13.8601 150.007 17.0766 150.722 18.9437H132.212C131.577 18.9437 131.065 19.4613 131.065 20.1021C131.065 20.7429 131.577 21.2605 132.212 21.2605Z" fill="white"/>
<path d="M137.481 25.0806C136.986 25.2654 136.724 25.8077 136.876 26.3129C138.75 32.5487 140.582 40.171 141.571 46.8813C141.76 48.1568 142.975 48.9948 144.22 48.7113C145.398 48.4402 146.137 47.251 145.862 46.0617C144.397 39.678 141.638 31.4458 138.714 25.5612C138.488 25.1052 137.951 24.9019 137.475 25.0806H137.481Z" fill="white"/>
<path d="M221.925 20.7182C217.146 18.4136 213.062 14.6302 210.089 10.1814C209.942 9.95955 209.912 9.68227 210.009 9.43579L210.186 8.97981C210.351 8.56081 210.144 8.08018 209.716 7.9323C208.202 7.38389 206.53 8.14796 205.931 9.65762C203.538 15.6963 199.79 21.1064 195.413 24.4954C195.09 24.748 194.998 25.1979 195.212 25.5491L195.279 25.66C195.505 26.0359 195.993 26.1591 196.365 25.9311C201.701 22.653 205.693 17.9392 208.422 12.8371C208.715 12.2887 209.49 12.2826 209.796 12.8371C211.981 16.8115 215.418 21.1064 220.015 24.1442C220.949 24.7604 222.206 24.4215 222.75 23.4417C223.293 22.4681 222.927 21.2111 221.925 20.7305V20.7182Z" fill="white"/>
<path d="M218.733 25.4688H210.363C209.79 25.4688 209.32 25.9371 209.32 26.5224C209.32 27.1078 209.784 27.5761 210.363 27.5761H215.473C215.913 27.5761 216.267 27.9335 216.267 28.3772V38.0205C216.267 38.2731 216.145 38.5134 215.949 38.6675C213.77 40.3188 211.829 41.6005 209.936 42.6049C209.143 43.0239 208.831 44.0036 209.259 44.7985C209.729 45.6735 210.864 45.9015 211.639 45.2915C212.708 44.4473 213.8 43.4491 214.893 42.2906C215.388 41.7669 216.267 42.1058 216.267 42.8329V51.3732C216.267 54.0167 215.723 54.5158 210.04 53.6901C209.637 53.6285 209.252 53.8934 209.155 54.3001L209.1 54.5281C209.008 54.9163 209.216 55.3168 209.582 55.4586C217.591 58.5272 219.52 56.0378 219.52 52.7781V26.2883C219.52 25.8446 219.166 25.4872 218.727 25.4872L218.733 25.4688Z" fill="white"/>
<path d="M201.616 37.355C202.342 36.9792 202.641 36.0857 202.263 35.3524C201.219 33.3252 199.851 31.15 198.551 29.5233C198.301 29.209 197.861 29.1228 197.513 29.3323L197.464 29.3631C197.129 29.5726 196.988 29.9978 197.147 30.3613C197.916 32.1298 198.82 34.385 199.546 36.517C199.839 37.3674 200.81 37.7617 201.609 37.3489L201.616 37.355Z" fill="white"/>
<path d="M207.03 25.4691H198.344C197.825 25.4691 197.342 25.8265 197.263 26.3441C197.159 27.0034 197.66 27.5703 198.289 27.5703H203.825C204.265 27.5703 204.619 27.9277 204.619 28.3714V38.3474C204.619 38.6062 204.503 38.8527 204.302 39.0129C203.313 39.814 200.273 42.3034 198.82 43.4864C198.313 43.8993 197.678 44.1273 197.025 44.1273H188.9C188.46 44.1273 188.106 43.7699 188.106 43.3262V39.4751C188.106 39.0314 188.46 38.674 188.9 38.674H193.673C194.113 38.674 194.467 38.3166 194.467 37.873V21.7289C194.467 21.2852 194.113 20.9278 193.673 20.9278H189.003C188.564 20.9278 188.21 20.5705 188.21 20.1268V16.6022C188.21 16.1586 188.564 15.8012 189.003 15.8012H196.091C196.61 15.8012 197.092 15.4438 197.178 14.9262C197.281 14.2669 196.781 13.7 196.152 13.7H189.01C188.57 13.7 188.216 13.3426 188.216 12.8989V7.82155C188.216 7.3779 187.862 7.02051 187.422 7.02051H185.426C184.987 7.02051 184.633 7.3779 184.633 7.82155V12.9113C184.633 13.3549 184.278 13.7123 183.839 13.7123H177.075C176.556 13.7123 176.074 14.0697 175.988 14.5873C175.885 15.2466 176.385 15.8135 177.014 15.8135H183.833C184.272 15.8135 184.626 16.1709 184.626 16.6145V20.1391C184.626 20.5828 184.272 20.9402 183.833 20.9402H178.9C178.461 20.9402 178.107 21.2976 178.107 21.7412V37.8853C178.107 38.329 178.461 38.6863 178.9 38.6863H183.729C184.169 38.6863 184.523 39.0437 184.523 39.4874V43.3386C184.523 43.7822 184.169 44.1396 183.729 44.1396H178.888C177.624 44.1396 176.404 44.6141 175.47 45.4644L171.795 48.8041C170.513 49.9687 168.846 50.6157 167.125 50.6157H158.126C160.617 44.6325 164.042 34.3792 165.83 26.0668C166.099 24.8283 165.299 23.8116 164.042 23.8116C162.705 23.8116 161.459 24.9022 161.27 26.2394C160.037 35.0755 157.87 44.6079 156.094 50.6157H124.246V29.7085C124.246 29.1293 123.782 28.6548 123.202 28.6548H99.3207C98.7469 28.6548 98.2769 29.1231 98.2769 29.7085V56.0258C98.2769 56.6051 98.7408 57.0795 99.3207 57.0795H100.871C101.445 57.0795 101.915 56.6112 101.915 56.0258V54.0294C101.915 53.4502 102.379 52.9757 102.959 52.9757H119.576C120.15 52.9757 120.62 53.444 120.62 54.0294V55.8102C120.62 56.3894 121.084 56.8639 121.664 56.8639H123.214C123.788 56.8639 124.258 56.3955 124.258 55.8102V53.0928H167.796C169.493 53.0928 171.129 52.4704 172.399 51.3428L176.709 47.5225C177.643 46.6968 178.839 46.2408 180.079 46.2408H183.735C184.175 46.2408 184.529 46.5982 184.529 47.0418V56.2538C184.529 56.8022 184.968 57.2459 185.512 57.2459H187.123C187.667 57.2459 188.106 56.8022 188.106 56.2538V47.0418C188.106 46.5982 188.46 46.2408 188.9 46.2408H196.976C198.319 46.2778 199.632 45.8279 200.669 44.9714C201.53 44.2628 202.397 43.4803 203.258 42.6176C203.758 42.1123 204.613 42.4574 204.613 43.1783V51.2627C204.613 54.0232 204.112 54.5716 197.574 53.4379C197.171 53.3701 196.781 53.6227 196.677 54.0171L196.616 54.2512C196.512 54.6394 196.714 55.0461 197.08 55.194C205.632 58.7247 207.818 55.9211 207.818 52.606V26.2763C207.818 25.8327 207.464 25.4753 207.024 25.4753L207.03 25.4691ZM109.564 49.8208C109.564 50.4001 109.1 50.8745 108.52 50.8745H102.965C102.391 50.8745 101.921 50.4062 101.921 49.8208V42.3218C101.921 41.7426 102.385 41.2682 102.965 41.2682H108.52C109.094 41.2682 109.564 41.7365 109.564 42.3218V49.8208ZM109.564 38.064C109.564 38.6432 109.1 39.1177 108.52 39.1177H102.965C102.391 39.1177 101.921 38.6494 101.921 38.064V31.8097C101.921 31.2305 102.385 30.756 102.965 30.756H108.52C109.094 30.756 109.564 31.2243 109.564 31.8097V38.064ZM120.626 49.8208C120.626 50.4001 120.162 50.8745 119.582 50.8745H114.131C113.557 50.8745 113.087 50.4062 113.087 49.8208V42.3218C113.087 41.7426 113.551 41.2682 114.131 41.2682H119.582C120.156 41.2682 120.626 41.7365 120.626 42.3218V49.8208ZM120.626 38.064C120.626 38.6432 120.162 39.1177 119.582 39.1177H114.131C113.557 39.1177 113.087 38.6494 113.087 38.064V31.8097C113.087 31.2305 113.551 30.756 114.131 30.756H119.582C120.156 30.756 120.626 31.2243 120.626 31.8097V38.064ZM181.434 23.8424C181.434 23.3988 181.788 23.0414 182.227 23.0414H190.371C190.81 23.0414 191.164 23.3988 191.164 23.8424V27.7983C191.164 28.242 190.81 28.5994 190.371 28.5994H182.227C181.788 28.5994 181.434 28.242 181.434 27.7983V23.8424ZM182.227 36.6344C181.788 36.6344 181.434 36.2771 181.434 35.8334V31.5016C181.434 31.058 181.788 30.7006 182.227 30.7006H190.371C190.81 30.7006 191.164 31.058 191.164 31.5016V35.8334C191.164 36.2771 190.81 36.6344 190.371 36.6344H182.227Z" fill="white"/>
<path d="M213.153 37.5957C213.91 37.3 214.289 36.4311 213.971 35.6794C213.129 33.6829 211.963 31.5818 210.742 29.8503C210.516 29.5298 210.083 29.4313 209.735 29.6161C209.381 29.8071 209.222 30.2323 209.362 30.6082C210.022 32.3766 210.669 34.4593 211.224 36.5975C211.444 37.4417 212.341 37.91 213.153 37.5957Z" fill="white"/>
</g>
<circle cx="30.66" cy="30.66" r="30.66" fill="#DAB071"/>
<path d="M40.3025 23.0768C40.3025 25.2843 39.674 27.0472 38.4169 28.3656C37.1905 29.6533 35.5502 30.5118 33.496 30.941V31.125C36.1021 31.4316 38.049 32.2594 39.3367 33.6085C40.6551 34.9575 41.3143 36.7205 41.3143 38.8973C41.3143 40.8289 40.8697 42.5305 39.9806 44.0022C39.0914 45.4739 37.7117 46.6236 35.8415 47.4515C34.0019 48.2793 31.6257 48.6932 28.713 48.6932C26.9961 48.6932 25.4017 48.5552 23.9301 48.2793C22.4584 48.034 21.048 47.5741 19.699 46.8996V43.1284C21.0787 43.8336 22.5657 44.3701 24.16 44.738C25.7543 45.106 27.2873 45.2899 28.759 45.2899C31.7024 45.2899 33.8179 44.7227 35.1056 43.5883C36.424 42.4232 37.0832 40.8289 37.0832 38.8053C37.0832 36.7511 36.2707 35.2794 34.6457 34.3903C33.0514 33.4705 30.7979 33.0106 27.8852 33.0106H24.7119V29.5613H27.9312C30.6293 29.5613 32.6682 28.9941 34.0479 27.8597C35.4582 26.7253 36.1634 25.223 36.1634 23.3527C36.1634 21.7584 35.6268 20.532 34.5537 19.6735C33.4806 18.7844 32.0243 18.3398 30.1847 18.3398C28.4064 18.3398 26.8887 18.6004 25.6317 19.1216C24.3746 19.6428 23.1329 20.302 21.9065 21.0992L19.8829 18.3398C21.048 17.42 22.489 16.6228 24.206 15.9483C25.9536 15.2738 27.9312 14.9365 30.1387 14.9365C33.5726 14.9365 36.1174 15.703 37.773 17.236C39.4593 18.769 40.3025 20.7159 40.3025 23.0768Z" fill="white"/>
<defs>
<clipPath id="clip0_42_57253">
<rect width="148" height="52" fill="white" transform="translate(75 5.2334)"/>
</clipPath>
</defs>
</svg>
