<svg width="220" height="62" viewBox="0 0 220 62" fill="none" xmlns="http://www.w3.org/2000/svg">
<g clip-path="url(#clip0_42_57251)">
<path d="M90.9303 10.6893H80.1434C79.5696 10.6893 79.0995 11.1576 79.0995 11.7429V19.1064C79.0019 25.8844 78.251 41.2152 73.5566 47.3709C73.5566 47.3709 70.5043 50.4518 72.9461 53.5327C72.9461 53.5327 75.9984 56.6137 79.6612 52.9165C79.6612 52.9165 82.103 50.4518 82.5181 44.0989L82.5059 43.988C82.5059 43.9449 82.5181 43.9017 82.5181 43.8524V44.0989C82.5181 43.5197 82.9821 43.0452 83.562 43.0452H87.5666C88.1405 43.0452 88.6105 43.5135 88.6105 44.0989V48.1657C88.6105 48.745 89.0745 49.2194 89.6544 49.2194H90.9364C91.5102 49.2194 91.9803 48.7511 91.9803 48.1657V11.7368C91.9803 11.1576 91.5163 10.6831 90.9364 10.6831L90.9303 10.6893ZM88.6044 39.8411C88.6044 40.4203 88.1405 40.8947 87.5605 40.8947H83.5559C82.9821 40.8947 82.512 40.4264 82.512 39.8411V13.8441C82.512 13.2649 82.976 12.7905 83.5559 12.7905H87.5605C88.1344 12.7905 88.6044 13.2588 88.6044 13.8441V39.8411Z" fill="url(#paint0_linear_42_57251)"/>
<path d="M101.168 16.919V23.0131C101.168 23.5923 101.632 24.0668 102.212 24.0668H103.652C104.226 24.0668 104.696 23.5985 104.696 23.0131V16.919C104.696 16.3398 105.16 15.8653 105.74 15.8653H111.668C112.242 15.8653 112.712 16.3337 112.712 16.919V22.9577C112.712 23.5369 113.176 24.0113 113.755 24.0113H115.141C115.715 24.0113 116.185 23.543 116.185 22.9577V16.919C116.185 16.3398 116.649 15.8653 117.229 15.8653H122.784C123.358 15.8653 123.828 15.397 123.828 14.8117C123.828 14.2263 123.364 13.758 122.784 13.758H117.229C116.655 13.758 116.185 13.2897 116.185 12.7043V8.97638C116.185 8.39717 115.721 7.9227 115.141 7.9227H113.755C113.182 7.9227 112.712 8.391 112.712 8.97638V12.7043C112.712 13.2835 112.248 13.758 111.668 13.758H105.74C105.166 13.758 104.696 13.2897 104.696 12.7043V6.67184C104.696 6.09263 104.232 5.61816 103.652 5.61816H102.212C101.638 5.61816 101.168 6.08647 101.168 6.67184V12.7105C101.168 13.2897 100.704 13.7642 100.124 13.7642H94.996C94.4222 13.7642 93.9521 14.2325 93.9521 14.8178C93.9521 15.4032 94.4161 15.8715 94.996 15.8715H100.124C100.698 15.8715 101.168 16.3398 101.168 16.9252V16.919Z" fill="url(#paint1_linear_42_57251)"/>
<path d="M129.212 19.2605H169.069C169.704 19.2605 170.217 18.7429 170.217 18.1021C170.217 17.4613 169.704 16.9437 169.069 16.9437H150.517C150.847 11.8848 148.21 6.30211 148.21 6.30211C145.933 1.85941 141.757 3.54776 141.757 3.54776C137.582 6.07412 142.667 9.84519 142.667 9.84519C145.451 11.8601 147.007 15.0766 147.722 16.9437H129.212C128.577 16.9437 128.065 17.4613 128.065 18.1021C128.065 18.7429 128.577 19.2605 129.212 19.2605Z" fill="url(#paint2_linear_42_57251)"/>
<path d="M134.481 23.0806C133.986 23.2654 133.724 23.8077 133.876 24.3129C135.75 30.5487 137.582 38.171 138.571 44.8813C138.76 46.1568 139.975 46.9948 141.22 46.7113C142.398 46.4402 143.137 45.251 142.862 44.0617C141.397 37.678 138.638 29.4458 135.714 23.5612C135.488 23.1052 134.951 22.9019 134.475 23.0806H134.481Z" fill="url(#paint3_linear_42_57251)"/>
<path d="M218.925 18.7182C214.146 16.4136 210.062 12.6302 207.089 8.18138C206.942 7.95955 206.912 7.68227 207.009 7.43579L207.186 6.97981C207.351 6.56081 207.144 6.08018 206.716 5.9323C205.202 5.38389 203.53 6.14796 202.931 7.65762C200.538 13.6963 196.79 19.1064 192.413 22.4954C192.09 22.748 191.998 23.1979 192.212 23.5491L192.279 23.66C192.505 24.0359 192.993 24.1591 193.365 23.9311C198.701 20.653 202.693 15.9392 205.422 10.8371C205.715 10.2887 206.49 10.2826 206.796 10.8371C208.981 14.8115 212.418 19.1064 217.015 22.1442C217.949 22.7604 219.206 22.4215 219.75 21.4417C220.293 20.4681 219.927 19.2111 218.925 18.7305V18.7182Z" fill="url(#paint4_linear_42_57251)"/>
<path d="M215.733 23.4688H207.363C206.79 23.4688 206.32 23.9371 206.32 24.5224C206.32 25.1078 206.784 25.5761 207.363 25.5761H212.473C212.913 25.5761 213.267 25.9335 213.267 26.3772V36.0205C213.267 36.2731 213.145 36.5134 212.949 36.6675C210.77 38.3188 208.829 39.6005 206.936 40.6049C206.143 41.0239 205.831 42.0036 206.259 42.7985C206.729 43.6735 207.864 43.9015 208.639 43.2915C209.708 42.4473 210.8 41.4491 211.893 40.2906C212.388 39.7669 213.267 40.1058 213.267 40.8329V49.3732C213.267 52.0167 212.723 52.5158 207.04 51.6901C206.637 51.6285 206.252 51.8934 206.155 52.3001L206.1 52.5281C206.008 52.9163 206.216 53.3168 206.582 53.4586C214.591 56.5272 216.52 54.0378 216.52 50.7781V24.2883C216.52 23.8446 216.166 23.4872 215.727 23.4872L215.733 23.4688Z" fill="url(#paint5_linear_42_57251)"/>
<path d="M198.616 35.355C199.342 34.9792 199.641 34.0857 199.263 33.3524C198.219 31.3252 196.851 29.15 195.551 27.5233C195.301 27.209 194.861 27.1228 194.513 27.3323L194.464 27.3631C194.129 27.5726 193.988 27.9978 194.147 28.3613C194.916 30.1298 195.82 32.385 196.546 34.517C196.839 35.3674 197.81 35.7617 198.609 35.3489L198.616 35.355Z" fill="url(#paint6_linear_42_57251)"/>
<path d="M204.03 23.4691H195.344C194.825 23.4691 194.342 23.8265 194.263 24.3441C194.159 25.0034 194.66 25.5703 195.289 25.5703H200.825C201.265 25.5703 201.619 25.9277 201.619 26.3714V36.3474C201.619 36.6062 201.503 36.8527 201.302 37.0129C200.313 37.814 197.273 40.3034 195.82 41.4864C195.313 41.8993 194.678 42.1273 194.025 42.1273H185.9C185.46 42.1273 185.106 41.7699 185.106 41.3262V37.4751C185.106 37.0314 185.46 36.674 185.9 36.674H190.673C191.113 36.674 191.467 36.3166 191.467 35.873V19.7289C191.467 19.2852 191.113 18.9278 190.673 18.9278H186.003C185.564 18.9278 185.21 18.5705 185.21 18.1268V14.6022C185.21 14.1586 185.564 13.8012 186.003 13.8012H193.091C193.61 13.8012 194.092 13.4438 194.178 12.9262C194.281 12.2669 193.781 11.7 193.152 11.7H186.01C185.57 11.7 185.216 11.3426 185.216 10.8989V5.82155C185.216 5.3779 184.862 5.02051 184.422 5.02051H182.426C181.987 5.02051 181.633 5.3779 181.633 5.82155V10.9113C181.633 11.3549 181.278 11.7123 180.839 11.7123H174.075C173.556 11.7123 173.074 12.0697 172.988 12.5873C172.885 13.2466 173.385 13.8135 174.014 13.8135H180.833C181.272 13.8135 181.626 14.1709 181.626 14.6145V18.1391C181.626 18.5828 181.272 18.9402 180.833 18.9402H175.9C175.461 18.9402 175.107 19.2976 175.107 19.7412V35.8853C175.107 36.329 175.461 36.6863 175.9 36.6863H180.729C181.169 36.6863 181.523 37.0437 181.523 37.4874V41.3386C181.523 41.7822 181.169 42.1396 180.729 42.1396H175.888C174.624 42.1396 173.404 42.6141 172.47 43.4644L168.795 46.8041C167.513 47.9687 165.846 48.6157 164.125 48.6157H155.126C157.617 42.6325 161.042 32.3792 162.83 24.0668C163.099 22.8283 162.299 21.8116 161.042 21.8116C159.705 21.8116 158.459 22.9022 158.27 24.2394C157.037 33.0755 154.87 42.6079 153.094 48.6157H121.246V27.7085C121.246 27.1293 120.782 26.6548 120.202 26.6548H96.3207C95.7469 26.6548 95.2769 27.1231 95.2769 27.7085V54.0258C95.2769 54.6051 95.7408 55.0795 96.3207 55.0795H97.8713C98.4451 55.0795 98.9152 54.6112 98.9152 54.0258V52.0294C98.9152 51.4502 99.3791 50.9757 99.9591 50.9757H116.576C117.15 50.9757 117.62 51.444 117.62 52.0294V53.8102C117.62 54.3894 118.084 54.8639 118.664 54.8639H120.214C120.788 54.8639 121.258 54.3955 121.258 53.8102V51.0928H164.796C166.493 51.0928 168.129 50.4704 169.399 49.3428L173.709 45.5225C174.643 44.6968 175.839 44.2408 177.079 44.2408H180.735C181.175 44.2408 181.529 44.5982 181.529 45.0418V54.2538C181.529 54.8022 181.968 55.2459 182.512 55.2459H184.123C184.667 55.2459 185.106 54.8022 185.106 54.2538V45.0418C185.106 44.5982 185.46 44.2408 185.9 44.2408H193.976C195.319 44.2778 196.632 43.8279 197.669 42.9714C198.53 42.2628 199.397 41.4803 200.258 40.6176C200.758 40.1123 201.613 40.4574 201.613 41.1783V49.2627C201.613 52.0232 201.112 52.5716 194.574 51.4379C194.171 51.3701 193.781 51.6227 193.677 52.0171L193.616 52.2512C193.512 52.6394 193.714 53.0461 194.08 53.194C202.632 56.7247 204.818 53.9211 204.818 50.606V24.2763C204.818 23.8327 204.464 23.4753 204.024 23.4753L204.03 23.4691ZM106.564 47.8208C106.564 48.4001 106.1 48.8745 105.52 48.8745H99.9652C99.3914 48.8745 98.9213 48.4062 98.9213 47.8208V40.3218C98.9213 39.7426 99.3853 39.2682 99.9652 39.2682H105.52C106.094 39.2682 106.564 39.7365 106.564 40.3218V47.8208ZM106.564 36.064C106.564 36.6432 106.1 37.1177 105.52 37.1177H99.9652C99.3914 37.1177 98.9213 36.6494 98.9213 36.064V29.8097C98.9213 29.2305 99.3853 28.756 99.9652 28.756H105.52C106.094 28.756 106.564 29.2243 106.564 29.8097V36.064ZM117.626 47.8208C117.626 48.4001 117.162 48.8745 116.582 48.8745H111.131C110.557 48.8745 110.087 48.4062 110.087 47.8208V40.3218C110.087 39.7426 110.551 39.2682 111.131 39.2682H116.582C117.156 39.2682 117.626 39.7365 117.626 40.3218V47.8208ZM117.626 36.064C117.626 36.6432 117.162 37.1177 116.582 37.1177H111.131C110.557 37.1177 110.087 36.6494 110.087 36.064V29.8097C110.087 29.2305 110.551 28.756 111.131 28.756H116.582C117.156 28.756 117.626 29.2243 117.626 29.8097V36.064ZM178.434 21.8424C178.434 21.3988 178.788 21.0414 179.227 21.0414H187.371C187.81 21.0414 188.164 21.3988 188.164 21.8424V25.7983C188.164 26.242 187.81 26.5994 187.371 26.5994H179.227C178.788 26.5994 178.434 26.242 178.434 25.7983V21.8424ZM179.227 34.6344C178.788 34.6344 178.434 34.2771 178.434 33.8334V29.5016C178.434 29.058 178.788 28.7006 179.227 28.7006H187.371C187.81 28.7006 188.164 29.058 188.164 29.5016V33.8334C188.164 34.2771 187.81 34.6344 187.371 34.6344H179.227Z" fill="url(#paint7_linear_42_57251)"/>
<path d="M210.153 35.5957C210.91 35.3 211.289 34.4311 210.971 33.6794C210.129 31.6829 208.963 29.5818 207.742 27.8503C207.516 27.5298 207.083 27.4313 206.735 27.6161C206.381 27.8071 206.222 28.2323 206.362 28.6082C207.022 30.3766 207.669 32.4593 208.224 34.5975C208.444 35.4417 209.341 35.91 210.153 35.5957Z" fill="url(#paint8_linear_42_57251)"/>
</g>
<circle cx="30.66" cy="30.66" r="30.66" fill="#DAB071"/>
<path d="M40.3025 23.0768C40.3025 25.2843 39.674 27.0472 38.4169 28.3656C37.1905 29.6533 35.5502 30.5118 33.496 30.941V31.125C36.1021 31.4316 38.049 32.2594 39.3367 33.6085C40.6551 34.9575 41.3143 36.7205 41.3143 38.8973C41.3143 40.8289 40.8697 42.5305 39.9806 44.0022C39.0914 45.4739 37.7117 46.6236 35.8415 47.4515C34.0019 48.2793 31.6257 48.6932 28.713 48.6932C26.9961 48.6932 25.4017 48.5552 23.9301 48.2793C22.4584 48.034 21.048 47.5741 19.699 46.8996V43.1284C21.0787 43.8336 22.5657 44.3701 24.16 44.738C25.7543 45.106 27.2873 45.2899 28.759 45.2899C31.7024 45.2899 33.8179 44.7227 35.1056 43.5883C36.424 42.4232 37.0832 40.8289 37.0832 38.8053C37.0832 36.7511 36.2707 35.2794 34.6457 34.3903C33.0514 33.4705 30.7979 33.0106 27.8852 33.0106H24.7119V29.5613H27.9312C30.6293 29.5613 32.6682 28.9941 34.0479 27.8597C35.4582 26.7253 36.1634 25.223 36.1634 23.3527C36.1634 21.7584 35.6268 20.532 34.5537 19.6735C33.4806 18.7844 32.0243 18.3398 30.1847 18.3398C28.4064 18.3398 26.8887 18.6004 25.6317 19.1216C24.3746 19.6428 23.1329 20.302 21.9065 21.0992L19.8829 18.3398C21.048 17.42 22.489 16.6228 24.206 15.9483C25.9536 15.2738 27.9312 14.9365 30.1387 14.9365C33.5726 14.9365 36.1174 15.703 37.773 17.236C39.4593 18.769 40.3025 20.7159 40.3025 23.0768Z" fill="white"/>
<defs>
<linearGradient id="paint0_linear_42_57251" x1="81.9898" y1="10.6831" x2="81.9898" y2="54.7362" gradientUnits="userSpaceOnUse">
<stop stop-color="#117E8D"/>
<stop offset="1" stop-color="#A29309"/>
</linearGradient>
<linearGradient id="paint1_linear_42_57251" x1="108.89" y1="5.61816" x2="108.89" y2="24.0668" gradientUnits="userSpaceOnUse">
<stop stop-color="#117E8D"/>
<stop offset="1" stop-color="#A29309"/>
</linearGradient>
<linearGradient id="paint2_linear_42_57251" x1="149.141" y1="3.23291" x2="149.141" y2="19.2605" gradientUnits="userSpaceOnUse">
<stop stop-color="#117E8D"/>
<stop offset="1" stop-color="#A29309"/>
</linearGradient>
<linearGradient id="paint3_linear_42_57251" x1="138.376" y1="23.0161" x2="138.376" y2="46.7665" gradientUnits="userSpaceOnUse">
<stop stop-color="#117E8D"/>
<stop offset="1" stop-color="#A29309"/>
</linearGradient>
<linearGradient id="paint4_linear_42_57251" x1="206.049" y1="5.75488" x2="206.049" y2="24.0457" gradientUnits="userSpaceOnUse">
<stop stop-color="#117E8D"/>
<stop offset="1" stop-color="#A29309"/>
</linearGradient>
<linearGradient id="paint5_linear_42_57251" x1="211.293" y1="23.4687" x2="211.293" y2="54.8539" gradientUnits="userSpaceOnUse">
<stop stop-color="#117E8D"/>
<stop offset="1" stop-color="#A29309"/>
</linearGradient>
<linearGradient id="paint6_linear_42_57251" x1="196.754" y1="27.2178" x2="196.754" y2="35.5137" gradientUnits="userSpaceOnUse">
<stop stop-color="#117E8D"/>
<stop offset="1" stop-color="#A29309"/>
</linearGradient>
<linearGradient id="paint7_linear_42_57251" x1="150.047" y1="5.02051" x2="150.047" y2="55.2459" gradientUnits="userSpaceOnUse">
<stop stop-color="#117E8D"/>
<stop offset="1" stop-color="#A29309"/>
</linearGradient>
<linearGradient id="paint8_linear_42_57251" x1="208.698" y1="27.5234" x2="208.698" y2="35.694" gradientUnits="userSpaceOnUse">
<stop stop-color="#117E8D"/>
<stop offset="1" stop-color="#A29309"/>
</linearGradient>
<clipPath id="clip0_42_57251">
<rect width="148" height="52" fill="white" transform="translate(72 3.2334)"/>
</clipPath>
</defs>
</svg>
