<svg width="32" height="26" viewBox="0 0 32 26" fill="none" xmlns="http://www.w3.org/2000/svg">
<path d="M16.7304 24.0796C15.8902 25.1541 14.5817 25.8144 13.167 25.88C11.7522 25.9463 10.382 25.4091 9.43406 24.4173L0.939144 15.5358C-0.410965 14.1251 -0.291035 11.9506 1.20629 10.6786C2.70506 9.40664 5.01173 9.52031 6.36184 10.9317L12.372 17.2157C12.461 17.3091 12.5903 17.3592 12.7232 17.3531C12.8567 17.347 12.9788 17.2841 13.0585 17.1839L25.412 1.39864C26.6077 -0.130437 28.8929 -0.455872 30.5166 0.671311C32.1389 1.79849 32.4836 3.95137 31.2871 5.47977L16.7304 24.0796Z" fill="#6F7B20"/>
</svg>
